<svg xmlns="http://www.w3.org/2000/svg" xmlns:xlink="http://www.w3.org/1999/xlink" viewBox="0 0 25 20.74"><defs><style>.cls-1{fill:url(#linear-gradient);}.cls-2{fill:url(#linear-gradient-2);}.cls-3{isolation:isolate;}.cls-4{mask:url(#mask);}.cls-5,.cls-6,.cls-7{fill:#29abe2;mix-blend-mode:multiply;}.cls-5{opacity:0.15;}.cls-6{opacity:0.2;}.cls-7{opacity:0.3;}.cls-8{mask:url(#mask-2);}.cls-9{opacity:0.7;}</style><linearGradient id="linear-gradient" y1="12.5" x2="25" y2="12.5" gradientUnits="userSpaceOnUse"><stop offset="0.34" stop-color="#fff"/><stop offset="0.45" stop-color="#c1c1c1"/><stop offset="0.56" stop-color="#878787"/><stop offset="0.66" stop-color="#575757"/><stop offset="0.76" stop-color="#313131"/><stop offset="0.86" stop-color="#161616"/><stop offset="0.94" stop-color="#060606"/><stop offset="1"/></linearGradient><linearGradient id="linear-gradient-2" y1="8.49" y2="8.49" gradientTransform="translate(25 21.05) rotate(180)" xlink:href="#linear-gradient"/><mask id="mask" x="0" y="-3.3" width="25" height="25" maskUnits="userSpaceOnUse"><g transform="translate(0 -3.3)"><rect class="cls-1" width="25" height="25"/></g></mask><mask id="mask-2" x="0" y="-6.34" width="25" height="31.21" maskUnits="userSpaceOnUse"><g transform="translate(0 -3.3)"><rect class="cls-2" y="-3.04" width="25" height="31.21"/></g></mask></defs><title>6754</title><g class="cls-3"><g id="Layer_1" data-name="Layer 1"><g class="cls-4"><path class="cls-5" d="M24.35,9.06A7.67,7.67,0,0,1,23,10.45c-2.6,2.08-6.15.9-9.76,2.86C9.94,15.13,7.56,19.34,0,16.9V17c7.58,2.49,10-1.8,13.23-3.62,3.63-2,7.22-.67,9.82-2.7A10.37,10.37,0,0,0,25,8.48V8.11C24.79,8.44,24.57,8.76,24.35,9.06Z" transform="translate(0 -3.3)"/><path class="cls-5" d="M25,8c-0.24.38-.48,0.73-0.73,1.05-2.3,3.11-4.67,2.31-9,3.4-1.77.36-3.38,1.64-5.12,3a19.27,19.27,0,0,1,4-2.48c3.68-1.39,7.18-.62,9.21-2.77A9,9,0,0,0,25,8.37V8Z" transform="translate(0 -3.3)"/><path class="cls-5" d="M0.4,16.72c5,1.34,7.7.32,9.76-1.29C8.09,16.9,5.33,17.82.4,16.72Z" transform="translate(0 -3.3)"/><path class="cls-5" d="M25,7.82A13.71,13.71,0,0,1,24.15,9a8,8,0,0,1-1.45,1.34c-2.63,1.93-6.16.91-9.69,2.89a34.82,34.82,0,0,0-3.65,2.57c1.78-1.06,3.15-2.36,4.76-2.93,3.65-1.41,7.14-.7,9.18-2.83A9,9,0,0,0,25,8.18V7.82Z" transform="translate(0 -3.3)"/><path class="cls-5" d="M0,16.58v0.06c4.55,1.4,7.26.75,9.37-.81C7.33,17.09,4.6,17.54,0,16.58Z" transform="translate(0 -3.3)"/><path class="cls-5" d="M24,9.06a7.75,7.75,0,0,1-1.43,1.27c-2.64,1.87-6.16.92-9.65,2.91C9.74,15.1,7.39,18.93,0,16.68v0.08c7.41,2.31,9.78-1.6,13-3.46,3.51-2,7.05-1,9.7-2.77A9.91,9.91,0,0,0,25,8.11V7.71A12.66,12.66,0,0,1,24,9.06Z" transform="translate(0 -3.3)"/><path class="cls-5" d="M23.91,9a7.61,7.61,0,0,1-1.45,1.25c-2.66,1.8-6.15.94-9.61,2.94C9.67,15.09,7.34,18.8,0,16.61v0.08c7.36,2.24,9.72-1.54,12.89-3.41,3.47-2,7-1.05,9.67-2.79A9.82,9.82,0,0,0,25,8V7.56A12.83,12.83,0,0,1,23.91,9Z" transform="translate(0 -3.3)"/><path class="cls-5" d="M23.83,9a7.67,7.67,0,0,1-1.49,1.24c-2.67,1.74-6.15.95-9.57,3C9.61,15.07,7.28,18.66,0,16.53v0.08c7.3,2.18,9.65-1.48,12.81-3.36,3.43-2,6.95-1.14,9.62-2.82A10.32,10.32,0,0,0,25,7.83V7.41A14.18,14.18,0,0,1,23.83,9Z" transform="translate(0 -3.3)"/><path class="cls-5" d="M23.73,9a7.67,7.67,0,0,1-1.51,1.22c-2.68,1.68-6.14,1-9.52,3C9.54,15.06,7.23,18.53,0,16.46v0.07c7.25,2.12,9.58-1.42,12.73-3.31,3.39-2,6.89-1.23,9.58-2.84A10.26,10.26,0,0,0,25,7.71V7.28A13.76,13.76,0,0,1,23.73,9Z" transform="translate(0 -3.3)"/><path class="cls-5" d="M23.58,9a7.61,7.61,0,0,1-1.49,1.15c-2.69,1.62-6.13,1-9.48,3C9.47,15,7.18,18.4,0,16.39v0.07c7.19,2.06,9.52-1.37,12.65-3.26,3.36-2,6.84-1.31,9.54-2.87A10,10,0,0,0,25,7.62V7.2A12.54,12.54,0,0,1,23.58,9Z" transform="translate(0 -3.3)"/><path class="cls-5" d="M23.48,9A7.7,7.7,0,0,1,22,10.1c-2.7,1.57-6.12,1-9.44,3C9.41,15,7.12,18.26,0,16.32V16.4c7.14,2,9.45-1.31,12.57-3.22,3.33-2,6.78-1.39,9.5-2.89A10,10,0,0,0,25,7.5V7.07A12.5,12.5,0,0,1,23.48,9Z" transform="translate(0 -3.3)"/><path class="cls-5" d="M23.37,8.94A7.88,7.88,0,0,1,21.84,10c-2.71,1.52-6.11,1-9.4,3C9.35,15,7.07,18.13,0,16.26v0.07c7.09,1.93,9.39-1.26,12.48-3.18,3.29-2,6.73-1.46,9.45-2.92A10,10,0,0,0,25,7.37V6.95A12.39,12.39,0,0,1,23.37,8.94Z" transform="translate(0 -3.3)"/><path class="cls-5" d="M1,16.28a13.31,13.31,0,0,0,5.67-.16A15.76,15.76,0,0,1,1,16.28Z" transform="translate(0 -3.3)"/><path class="cls-5" d="M16.7,11.34a9.2,9.2,0,0,0-3.37,1.4A19.41,19.41,0,0,1,16.7,11.34Z" transform="translate(0 -3.3)"/><path class="cls-5" d="M6.64,16.13c2.94-.67,4.8-2.21,6.69-3.39-0.32.17-.64,0.35-0.94,0.55C10.53,14.2,9,15.49,6.64,16.13Z" transform="translate(0 -3.3)"/><path class="cls-5" d="M25,6.83a12.26,12.26,0,0,1-1.73,2.08A7.9,7.9,0,0,1,21.72,10c-1.26.34-3.11,0.72-5,1.34a7.3,7.3,0,0,1,1.83-.07C21.27,10.47,23.25,9.9,25,7.5V6.83Z" transform="translate(0 -3.3)"/><path class="cls-5" d="M1,16.22A13.43,13.43,0,0,0,6.65,16,15.88,15.88,0,0,1,1,16.22Z" transform="translate(0 -3.3)"/><path class="cls-5" d="M16.64,11.28a9.35,9.35,0,0,0-3.31,1.38A20.21,20.21,0,0,1,16.64,11.28Z" transform="translate(0 -3.3)"/><path class="cls-5" d="M25,6.78a11.15,11.15,0,0,1-1.88,2.16,8.11,8.11,0,0,1-1.52,1c-1.26.32-3.08,0.71-5,1.32a7.32,7.32,0,0,1,1.81-.1c2.77-.83,4.77-1.39,6.55-3.84V6.78Z" transform="translate(0 -3.3)"/><path class="cls-5" d="M6.65,16c2.93-.68,4.79-2.22,6.69-3.39-0.35.19-.69,0.38-1,0.6C10.48,14.16,9,15.42,6.65,16Z" transform="translate(0 -3.3)"/><path class="cls-5" d="M23,8.91a8.12,8.12,0,0,1-1.54,1c-2.28.53-6.28,1.37-9.23,3.31C9.09,14.78,6.86,17.32,0,16V16c6.89,1.39,9.12-1.21,12.28-2.77,3-1.95,7-2.73,9.29-3.2A9.58,9.58,0,0,0,25,7V6.67A10.92,10.92,0,0,1,23,8.91Z" transform="translate(0 -3.3)"/><path class="cls-5" d="M22.93,8.85a8.36,8.36,0,0,1-1.59,1c-2.31.49-6.25,1.4-9.19,3.32C9,14.75,6.81,17.21,0,15.93V16c6.83,1.34,9.06-1.18,12.19-2.74,2.95-1.93,6.92-2.78,9.24-3.21A10.13,10.13,0,0,0,25,7V6.55A12.28,12.28,0,0,1,22.93,8.85Z" transform="translate(0 -3.3)"/><path class="cls-5" d="M22.83,8.82a8.5,8.5,0,0,1-1.61,1,27.26,27.26,0,0,0-9.14,3.34C9,14.72,6.75,17.1,0,15.86v0.06c6.78,1.29,9-1.15,12.11-2.71A25.79,25.79,0,0,1,21.31,10,10.16,10.16,0,0,0,25,6.85V6.44A12.11,12.11,0,0,1,22.83,8.82Z" transform="translate(0 -3.3)"/><path class="cls-5" d="M22.72,8.79a8.49,8.49,0,0,1-1.63,1A26.46,26.46,0,0,0,12,13.12C8.93,14.69,6.7,17,0,15.8v0.06c6.72,1.24,9-1.12,12-2.68a25.17,25.17,0,0,1,9.15-3.25A10.22,10.22,0,0,0,25,6.73V6.32A12.1,12.1,0,0,1,22.72,8.79Z" transform="translate(0 -3.3)"/><path class="cls-5" d="M0,15.64H0c4.1,0.86,6.46.63,8.46-.54C6.46,16.09,4,16.21,0,15.64Z" transform="translate(0 -3.3)"/><path class="cls-5" d="M25,6.28a11.28,11.28,0,0,1-2.41,2.53c-2.85,2.1-6.22,1.71-9.75,3.57-1.46.68-2.8,1.84-4.38,2.73,3.27-1.86,6.17-4,9.61-4.25,2.9-.93,5-1.44,6.93-4.11V6.28Z" transform="translate(0 -3.3)"/><path class="cls-5" d="M0,15.59H0c4.08,0.82,6.42.61,8.42-.55C6.42,16,4,16.12,0,15.59Z" transform="translate(0 -3.3)"/><path class="cls-5" d="M25,6.14a11.43,11.43,0,0,1-2.54,2.63c-2.85,2-6.2,1.72-9.7,3.58C11.32,13,10,14.17,8.42,15c3.27-1.83,6.15-4,9.57-4.26,2.92-1,5.06-1.47,7-4.18V6.14Z" transform="translate(0 -3.3)"/><path class="cls-5" d="M0,15.46v0.11c5.66,1,8,0,10.32-1.78C8,15.1,5.28,15.69,0,15.46Z" transform="translate(0 -3.3)"/><path class="cls-5" d="M20,10.17l1-.67c-2.12,1.15-4.73,1-7.64,2.49a17.28,17.28,0,0,0-3,1.8A34.63,34.63,0,0,1,20,10.17Z" transform="translate(0 -3.3)"/><path class="cls-5" d="M22.25,8.71a9.91,9.91,0,0,1-1.65.88A24.3,24.3,0,0,0,11.68,13c-3,1.55-5.19,3.58-11.68,2.58v0.06c6.51,1.05,8.73-1,11.71-2.57a23.13,23.13,0,0,1,9-3.31A10.31,10.31,0,0,0,25,6.33V5.95A11.19,11.19,0,0,1,22.25,8.71Z" transform="translate(0 -3.3)"/><path class="cls-5" d="M22.14,8.68a10.17,10.17,0,0,1-1.67.87A23.88,23.88,0,0,0,11.6,13C8.66,14.51,6.43,16.47,0,15.51v0.05c6.45,1,8.68-1,11.63-2.55a22.87,22.87,0,0,1,8.92-3.33A10.35,10.35,0,0,0,25,6.23V5.85A11.19,11.19,0,0,1,22.14,8.68Z" transform="translate(0 -3.3)"/><path class="cls-5" d="M22,8.65a11,11,0,0,1-1.68.86,23.52,23.52,0,0,0-8.83,3.42C8.6,14.47,6.38,16.36,0,15.45v0.05c6.4,1,8.62-1,11.56-2.52a22.56,22.56,0,0,1,8.87-3.34A10.46,10.46,0,0,0,25,6.11V5.74A11.13,11.13,0,0,1,22,8.65Z" transform="translate(0 -3.3)"/><path class="cls-5" d="M21.93,8.61a10.68,10.68,0,0,1-1.7.85,23.26,23.26,0,0,0-8.79,3.43C8.55,14.43,6.33,16.25,0,15.4v0.05c6.35,0.91,8.57-1,11.48-2.5A22.24,22.24,0,0,1,20.31,9.6,10.57,10.57,0,0,0,25,6V5.65A11.08,11.08,0,0,1,21.93,8.61Z" transform="translate(0 -3.3)"/><path class="cls-5" d="M21.77,8.62a12.39,12.39,0,0,1-1.66.8,23,23,0,0,0-8.74,3.44C8.49,14.39,6.28,16.15,0,15.34v0.05c6.3,0.86,8.52-.95,11.4-2.48a22,22,0,0,1,8.78-3.36A10.4,10.4,0,0,0,25,6V5.62A10.6,10.6,0,0,1,21.77,8.62Z" transform="translate(0 -3.3)"/><path class="cls-5" d="M0,15.1v0.12c5.84,0.77,8-.24,10.43-2C8,14.48,5.35,15,0,15.1Z" transform="translate(0 -3.3)"/><path class="cls-5" d="M20.15,9.54L20.92,9C18.67,10.2,16,10.15,13,11.74a17.58,17.58,0,0,0-2.55,1.48A60.51,60.51,0,0,1,20.15,9.54Z" transform="translate(0 -3.3)"/><path class="cls-5" d="M24.68,5.91c-1.07,1-2.33,2-3.76,3.06,0.25-.13.51-0.25,0.76-0.4A10.69,10.69,0,0,0,24.68,5.91Z" transform="translate(0 -3.3)"/><path class="cls-5" d="M21.56,8.54a13,13,0,0,1-1.71.78c-2.51.22-5.92,1.77-8.64,3.46C8.39,14.3,6.17,15.95,0,15.23v0.05c6.19,0.76,8.41-.92,11.25-2.43,2.73-1.7,6.16-3.21,8.69-3.39A10.73,10.73,0,0,0,25,5.76V5.41A10.62,10.62,0,0,1,21.56,8.54Z" transform="translate(0 -3.3)"/><path class="cls-5" d="M21.46,8.51a12.9,12.9,0,0,1-1.72.77c-2.52.21-5.89,1.8-8.59,3.47-2.81,1.51-5,3.1-11.14,2.42v0c6.14,0.72,8.35-.9,11.17-2.41,2.71-1.68,6.1-3.23,8.64-3.4a12.89,12.89,0,0,0,1.72-.74,10.33,10.33,0,0,0,3.47-3V5.32A10.66,10.66,0,0,1,21.46,8.51Z" transform="translate(0 -3.3)"/><path class="cls-5" d="M21.35,8.47a14,14,0,0,1-1.74.77c-2.53.21-5.86,1.82-8.55,3.47-2.78,1.5-5,3-11.06,2.4v0c6.09,0.67,8.3-.89,11.09-2.39,2.69-1.66,6-3.24,8.59-3.41A11,11,0,0,0,25,5.57V5.23A10.73,10.73,0,0,1,21.35,8.47Z" transform="translate(0 -3.3)"/><path class="cls-5" d="M21.24,8.44a13.81,13.81,0,0,1-1.75.76C17,9.4,13.66,11,11,12.68s-5,3-11,2.38v0c6,0.62,8.25-.88,11-2.37s6-3.26,8.54-3.41A11.15,11.15,0,0,0,25,5.49V5.13A10.81,10.81,0,0,1,21.24,8.44Z" transform="translate(0 -3.3)"/><path class="cls-5" d="M21.13,8.41a14.17,14.17,0,0,1-1.77.75c-2.54.2-5.8,1.88-8.45,3.49S6,15.54,0,15v0c6,0.58,8.19-.87,10.94-2.35s5.94-3.27,8.49-3.42a14.27,14.27,0,0,0,1.77-.72A10.59,10.59,0,0,0,25,5.39V5A10.9,10.9,0,0,1,21.13,8.41Z" transform="translate(0 -3.3)"/><path class="cls-5" d="M0,14.77v0.13c5.92,0.53,8-.43,10.46-2.16C8,13.93,5.35,14.45,0,14.77Z" transform="translate(0 -3.3)"/><path class="cls-5" d="M25,5C23.84,6,22.46,7.15,20.87,8.46L21,8.39A10.79,10.79,0,0,0,25,5h0Z" transform="translate(0 -3.3)"/><path class="cls-5" d="M20.24,9l0.62-.5c-2.43,1.32-5.17,1.36-8.32,3.08a18.65,18.65,0,0,0-2.1,1.19C14,11.11,17.3,10.06,20.24,9Z" transform="translate(0 -3.3)"/><path class="cls-5" d="M0,14.71V14.8c5.83,0.34,8.12-.47,10.78-2.28C8.24,13.76,5.59,14.37,0,14.71Z" transform="translate(0 -3.3)"/><path class="cls-5" d="M20.17,8.88l0.56-.46a15.68,15.68,0,0,1-1.61.66,23.78,23.78,0,0,0-8.34,3.44C14.13,11,17.33,9.94,20.17,8.88Z" transform="translate(0 -3.3)"/><path class="cls-5" d="M25,4.89C23.81,6,22.37,7.08,20.73,8.42l0.14-.05A10.8,10.8,0,0,0,25,4.93v0Z" transform="translate(0 -3.3)"/><path class="cls-5" d="M20.76,8.33A17.54,17.54,0,0,1,19,9c-2.56.19-5.7,1.95-8.3,3.5S5.82,15.25,0,14.84v0c5.83,0.44,8-.84,10.72-2.29s5.77-3.29,8.34-3.44a11.63,11.63,0,0,0,5.94-4V4.82A10.75,10.75,0,0,1,20.76,8.33Z" transform="translate(0 -3.3)"/><path class="cls-5" d="M20.66,8.29A18.31,18.31,0,0,1,18.88,9c-2.56.19-5.67,2-8.26,3.5S5.77,15.15,0,14.79v0c5.79,0.4,8-.84,10.65-2.27s5.72-3.29,8.29-3.44c0.62-.2,1.21-0.43,1.78-0.67A10.62,10.62,0,0,0,25,5.07V4.73A10.8,10.8,0,0,1,20.66,8.29Z" transform="translate(0 -3.3)"/><path class="cls-5" d="M20.55,8.26C20,8.52,19.38,8.75,18.75,9c-2.56.19-5.64,2-8.21,3.5S5.72,15.05,0,14.73v0c5.73,0.36,7.93-.83,10.57-2.25s5.67-3.29,8.25-3.45A12,12,0,0,0,25,5V4.64A10.92,10.92,0,0,1,20.55,8.26Z" transform="translate(0 -3.3)"/><path class="cls-5" d="M20.44,8.23c-0.58.26-1.18,0.49-1.8,0.7-2.56.2-5.61,2-8.16,3.5S5.67,15,0,14.68v0C5.68,15,7.88,13.9,10.5,12.48S16.12,9.19,18.7,9A12.2,12.2,0,0,0,25,4.91V4.55A11,11,0,0,1,20.44,8.23Z" transform="translate(0 -3.3)"/><path class="cls-5" d="M20.33,8.19c-0.58.26-1.19,0.48-1.82,0.7-2.56.2-5.57,2-8.11,3.5S5.62,14.86,0,14.63v0c5.63,0.27,7.82-.82,10.43-2.22S16,9.16,18.58,9A12.32,12.32,0,0,0,25,4.83V4.47A11.12,11.12,0,0,1,20.33,8.19Z" transform="translate(0 -3.3)"/><path class="cls-5" d="M0,14.37v0c6.29-.12,8.65-1,11.35-2.58C8.62,13.08,6,13.81,0,14.37Z" transform="translate(0 -3.3)"/><path class="cls-5" d="M25,4.36c-1.19,1-2.62,2.15-4.24,3.51A11,11,0,0,0,25,4.4v0Z" transform="translate(0 -3.3)"/><path class="cls-5" d="M20.2,8.34l0.56-.47c-0.2.1-.38,0.21-0.59,0.3-2.41-.15-5.71,2.14-8.83,3.65C14.52,10.53,17.52,9.44,20.2,8.34Z" transform="translate(0 -3.3)"/><path class="cls-5" d="M20.11,8.12c-0.59.25-1.2,0.48-1.84,0.7-2.56.21-5.5,2.07-8,3.49S5.52,14.67,0,14.52v0c5.53,0.19,7.72-.82,10.28-2.19s5.47-3.27,8.05-3.45A12.67,12.67,0,0,0,25,4.65V4.3A11.37,11.37,0,0,1,20.11,8.12Z" transform="translate(0 -3.3)"/><path class="cls-5" d="M20,8.09c-0.59.25-1.21,0.48-1.86,0.69-2.56.22-5.47,2.09-8,3.49S5.47,14.58,0,14.46v0c5.48,0.15,7.67-.82,10.21-2.18s5.42-3.27,8-3.45A12.86,12.86,0,0,0,25,4.57V4.22A11.51,11.51,0,0,1,20,8.09Z" transform="translate(0 -3.3)"/><path class="cls-5" d="M19.9,8.06c-0.6.25-1.22,0.47-1.87,0.69-2.56.22-5.44,2.11-7.92,3.49S5.42,14.48,0,14.41v0c5.44,0.11,7.61-.81,10.14-2.16s5.38-3.26,8-3.44A13.08,13.08,0,0,0,25,4.48V4.14A11.66,11.66,0,0,1,19.9,8.06Z" transform="translate(0 -3.3)"/><path class="cls-5" d="M25,4a11.48,11.48,0,0,1-3.2,3A10.75,10.75,0,0,0,25,4.48V4Z" transform="translate(0 -3.3)"/><path class="cls-5" d="M0,14.21H0c4.48,0,6.68-.19,8.82-1.4C6.72,13.82,4.41,13.94,0,14.21Z" transform="translate(0 -3.3)"/><path class="cls-5" d="M17.63,9c0.59-.3,1.17-0.56,1.74-0.83-0.48.19-.95,0.38-1.46,0.56-3,.5-6.18,2.46-9.09,4.11C11.88,11.4,14.65,9.72,17.63,9Z" transform="translate(0 -3.3)"/><path class="cls-5" d="M19.68,8c-0.6.25-1.23,0.47-1.89,0.69-2.56.24-5.37,2.14-7.82,3.48S5.32,14.3,0,14.3v0c5.34,0,7.51-.81,10-2.13S15.28,9,17.85,8.77c0.66-.21,1.29-0.43,1.89-0.67A11.72,11.72,0,0,0,25,4.29V4A11.88,11.88,0,0,1,19.68,8Z" transform="translate(0 -3.3)"/><path class="cls-5" d="M0,14.06v0.12c5.8-.1,7.92-0.72,10.65-2.53C8.06,12.8,5.45,13.23,0,14.06Z" transform="translate(0 -3.3)"/><path class="cls-5" d="M25,3.91c-1.18,1-2.62,2.13-4.21,3.49A11.35,11.35,0,0,0,25,3.94v0Z" transform="translate(0 -3.3)"/><path class="cls-5" d="M20.26,7.85l0.54-.46C20.37,7.6,20,7.81,19.53,8c-0.6.23-1.21,0.45-1.85,0.67a22.67,22.67,0,0,0-7,3C14.16,10.3,17.36,9.11,20.26,7.85Z" transform="translate(0 -3.3)"/><path class="cls-5" d="M19.42,7.94c-0.6.24-1.22,0.45-1.86,0.67-2.55.26-5.3,2.17-7.73,3.46S5.23,14.12,0,14.2v0c5.24,0,7.41-.82,9.85-2.1S15,8.93,17.61,8.7A13.76,13.76,0,0,0,25,4.24V3.89A11.86,11.86,0,0,1,19.42,7.94Z" transform="translate(0 -3.3)"/><path class="cls-5" d="M0,14.17H0a23.49,23.49,0,0,0,4.78-.38A32.4,32.4,0,0,1,0,14.17Z" transform="translate(0 -3.3)"/><path class="cls-5" d="M25,3.82a12,12,0,0,1-5.68,4.1c-0.6.23-1.23,0.45-1.87,0.67-4.9.87-6.85,4.1-12.66,5.22a15.37,15.37,0,0,0,5-1.72c2.42-1.28,5.15-3.18,7.71-3.42,0.64-.21,1.27-0.42,1.87-0.64A11.9,11.9,0,0,0,25,4.11V3.82Z" transform="translate(0 -3.3)"/><path class="cls-5" d="M19.21,7.88C18.6,8.11,18,8.33,17.33,8.55c-6,1.12-7.56,5.66-17.33,5.59v0C9.78,14.3,11.33,9.69,17.38,8.64,18,8.43,18.66,8.22,19.26,8A12.06,12.06,0,0,0,25,4V3.74A12.16,12.16,0,0,1,19.21,7.88Z" transform="translate(0 -3.3)"/><path class="cls-5" d="M25,3.6a11.75,11.75,0,0,1-3.08,2.86A10.67,10.67,0,0,0,25,4V3.6Z" transform="translate(0 -3.3)"/><path class="cls-5" d="M0,13.9v0c4.47-.23,6.61-0.32,8.76-1.54C6.66,13.37,4.39,13.44,0,13.9Z" transform="translate(0 -3.3)"/><path class="cls-5" d="M17.36,8.63c0.49-.25,1-0.47,1.44-0.69-0.52.19-1,.39-1.59,0.58-2.87.55-5.73,2.4-8.45,3.87C11.76,11.06,14.44,9.41,17.36,8.63Z" transform="translate(0 -3.3)"/><path class="cls-5" d="M5.84,13.41a43.73,43.73,0,0,1-5.69.46A27,27,0,0,0,5.84,13.41Z" transform="translate(0 -3.3)"/><path class="cls-5" d="M25,3.59a12.43,12.43,0,0,1-6,4.23c-0.61.23-1.25,0.45-1.9,0.67l-1.16.39c0.41-.12.81-0.23,1.2-0.3C20.27,7.67,23,6.39,25,3.89V3.59Z" transform="translate(0 -3.3)"/><path class="cls-5" d="M5.84,13.41c3.07-.66,5.13-2.5,7.76-3.64A48.1,48.1,0,0,0,9.24,12,15.7,15.7,0,0,1,5.84,13.41Z" transform="translate(0 -3.3)"/><path class="cls-5" d="M5.78,13.35a47,47,0,0,1-5.63.47A28.59,28.59,0,0,0,5.78,13.35Z" transform="translate(0 -3.3)"/><path class="cls-5" d="M25,3.47A12.27,12.27,0,0,1,18.85,7.8C18.23,8,17.6,8.25,17,8.46l-1.21.41A12.18,12.18,0,0,1,17,8.54c2.78-.94,5.5-1.66,8-4.8V3.47Z" transform="translate(0 -3.3)"/><path class="cls-5" d="M5.78,13.35c3.07-.65,5.13-2.47,7.75-3.61-1.5.64-2.91,1.43-4.39,2.24A15.47,15.47,0,0,1,5.78,13.35Z" transform="translate(0 -3.3)"/><path class="cls-5" d="M5.73,13.28c3.07-.63,5.12-2.43,7.74-3.58-1.5.65-2.92,1.44-4.41,2.25A15.27,15.27,0,0,1,5.73,13.28Z" transform="translate(0 -3.3)"/><path class="cls-5" d="M5.73,13.28a50.32,50.32,0,0,1-5.58.48A29.71,29.71,0,0,0,5.73,13.28Z" transform="translate(0 -3.3)"/><path class="cls-5" d="M25,3.39a12.46,12.46,0,0,1-6.25,4.39c-0.63.23-1.26,0.44-1.88,0.66-0.42.14-.84,0.27-1.26,0.42a12.22,12.22,0,0,1,1.3-.35c2.81-1,5.58-1.66,8.09-4.84V3.39Z" transform="translate(0 -3.3)"/><path class="cls-5" d="M5.67,13.22a54.26,54.26,0,0,1-5.54.49A31.72,31.72,0,0,0,5.67,13.22Z" transform="translate(0 -3.3)"/><path class="cls-5" d="M5.67,13.22c3.06-.62,5.1-2.39,7.71-3.54-1.51.66-2.92,1.45-4.41,2.25A15.18,15.18,0,0,1,5.67,13.22Z" transform="translate(0 -3.3)"/><path class="cls-5" d="M25,3.3a12.6,12.6,0,0,1-6.36,4.44l-1.89.66c-0.43.14-.87,0.28-1.29,0.44a12.69,12.69,0,0,1,1.34-.36c2.85-1,5.66-1.67,8.21-4.9V3.3Z" transform="translate(0 -3.3)"/><path class="cls-6" d="M23.94,7.71a8.3,8.3,0,0,1-1.36,1.57c-2.57,2.3-6.08,1.51-9.64,3.25S7.43,17,0,15.4v0.05c7.45,1.61,9.48-1.1,13-2.87s7.11-.88,9.69-3.14A11.68,11.68,0,0,0,25,6.14V5.73A16.5,16.5,0,0,1,23.94,7.71Z" transform="translate(0 -3.3)"/><path class="cls-6" d="M25,5.74a16.57,16.57,0,0,1-1.11,2c-2.18,3.34-4.67,2.81-8.87,4a18,18,0,0,0-5.1,2.5,27.49,27.49,0,0,1,4-2c3.62-1.31,7-.92,9.06-3.15a10.79,10.79,0,0,0,2-2.93V5.74Z" transform="translate(0 -3.3)"/><path class="cls-6" d="M0.61,15.21c4.8,0.87,7.18.36,9.32-1C7.79,15.46,5.38,15.91.61,15.21Z" transform="translate(0 -3.3)"/><path class="cls-6" d="M12.16,13C10,14,8.2,15.22,5,15.52,8.42,15.27,10.21,14.06,12.16,13Z" transform="translate(0 -3.3)"/><path class="cls-6" d="M25,5.77a15.94,15.94,0,0,1-1.19,2.11A8,8,0,0,1,22.4,9.37c-1.69,1-5.24,1.54-8.2,2.74,3.49-1.2,6.77-.91,8.74-3A10.57,10.57,0,0,0,25,6.13V5.77Z" transform="translate(0 -3.3)"/><path class="cls-6" d="M0.7,15.38a19.65,19.65,0,0,0,3.74.18A23.73,23.73,0,0,1,.7,15.38Z" transform="translate(0 -3.3)"/><path class="cls-6" d="M23.71,8a7.72,7.72,0,0,1-1.4,1.41c-2,1.1-6.45,1.65-9.57,3.32C9.35,14.06,7.14,16.37,0,15.25v0c7.17,1.18,9.38-1.2,12.78-2.5,3.14-1.68,7.61-2.16,9.62-3.22A10.59,10.59,0,0,0,25,6.2V5.82A14.5,14.5,0,0,1,23.71,8Z" transform="translate(0 -3.3)"/><path class="cls-6" d="M23.64,8.09a7.45,7.45,0,0,1-1.42,1.38c-2,1-6.45,1.6-9.55,3.27C9.31,14,7.1,16.32,0,15.22v0c7.12,1.15,9.33-1.17,12.71-2.48,3.12-1.67,7.56-2.2,9.6-3.17A10.27,10.27,0,0,0,25,6.22V5.84A14,14,0,0,1,23.64,8.09Z" transform="translate(0 -3.3)"/><path class="cls-6" d="M23.6,8.13A7.32,7.32,0,0,1,22.13,9.5c-2.08.93-6.45,1.57-9.54,3.22C9.25,14,7,16.26,0,15.19v0c7.07,1.12,9.28-1.15,12.63-2.46,3.1-1.66,7.5-2.24,9.58-3.12A10.31,10.31,0,0,0,25,6.25V5.85A14.21,14.21,0,0,1,23.6,8.13Z" transform="translate(0 -3.3)"/><path class="cls-6" d="M23.53,8.21A7.15,7.15,0,0,1,22,9.54c-2.12.84-6.44,1.53-9.52,3.18C9.21,14,7,16.21,0,15.16v0c7,1.1,9.23-1.12,12.56-2.44,3.08-1.65,7.44-2.27,9.56-3.08A10,10,0,0,0,25,6.28V5.88A13.78,13.78,0,0,1,23.53,8.21Z" transform="translate(0 -3.3)"/><path class="cls-6" d="M23.42,8.34a7.18,7.18,0,0,1-1.48,1.24c-2.15.77-6.44,1.51-9.5,3.14C9.16,14,7,16.15,0,15.13v0c7,1.07,9.18-1.1,12.49-2.41,3.07-1.63,7.38-2.31,9.54-3a9.56,9.56,0,0,0,3-3.38V5.95A12.69,12.69,0,0,1,23.42,8.34Z" transform="translate(0 -3.3)"/><path class="cls-6" d="M23.36,8.4a6.88,6.88,0,0,1-1.5,1.21c-2.19.69-6.44,1.48-9.48,3.09C9.11,14,6.91,16.1,0,15.1v0c6.93,1,9.13-1.07,12.41-2.39,3-1.62,7.33-2.35,9.52-3A9.42,9.42,0,0,0,25,6.36V6A12.21,12.21,0,0,1,23.36,8.4Z" transform="translate(0 -3.3)"/><path class="cls-6" d="M23.29,8.46a7,7,0,0,1-1.53,1.18c-2.23.62-6.43,1.44-9.46,3.05C9.06,14,6.86,16,0,15.07v0c6.89,1,9.08-1,12.34-2.37,3-1.61,7.27-2.38,9.5-3A9.23,9.23,0,0,0,25,6.39V6A11.67,11.67,0,0,1,23.29,8.46Z" transform="translate(0 -3.3)"/><path class="cls-6" d="M5.65,15.12c3.49-.48,5.58-1.92,7.76-3-0.41.18-.8,0.37-1.18,0.57C10.13,13.55,8.46,14.69,5.65,15.12Z" transform="translate(0 -3.3)"/><path class="cls-6" d="M25,6a11.51,11.51,0,0,1-1.78,2.5,7,7,0,0,1-1.55,1.14c-1.35.33-3.37,0.78-5.41,1.41a9.77,9.77,0,0,1,2.14-.22c2.83-.71,4.89-1.3,6.61-4.26V6Z" transform="translate(0 -3.3)"/><path class="cls-6" d="M25,6.13a10.4,10.4,0,0,1-1.9,2.51A6.86,6.86,0,0,1,21.58,9.7c-1.35.29-3.35,0.73-5.38,1.37a9.81,9.81,0,0,1,2.14-.23c2.85-.72,4.92-1.28,6.66-4.24V6.13Z" transform="translate(0 -3.3)"/><path class="cls-6" d="M5.65,15.08c3.47-.48,5.54-1.9,7.71-3-0.41.18-.81,0.37-1.2,0.57C10.08,13.54,8.42,14.66,5.65,15.08Z" transform="translate(0 -3.3)"/><path class="cls-6" d="M23,8.7a6.72,6.72,0,0,1-1.54,1,36.14,36.14,0,0,0-9.39,3C8.92,14,6.73,15.87,0,15v0c6.74,0.93,8.94-1,12.13-2.3a34.17,34.17,0,0,1,9.43-2.86A8.55,8.55,0,0,0,25,6.48V6.15A10.18,10.18,0,0,1,23,8.7Z" transform="translate(0 -3.3)"/><path class="cls-6" d="M23,8.73a7.05,7.05,0,0,1-1.59,1A33.67,33.67,0,0,0,12,12.67C8.87,14,6.68,15.82,0,15v0c6.7,0.91,8.89-1,12.06-2.27a32.08,32.08,0,0,1,9.4-2.84A8.39,8.39,0,0,0,25,6.54V6.2A10.3,10.3,0,0,1,23,8.73Z" transform="translate(0 -3.3)"/><path class="cls-6" d="M22.91,8.78a7.14,7.14,0,0,1-1.62,1A31.62,31.62,0,0,0,12,12.66C8.82,14,6.63,15.76,0,14.92v0c6.65,0.88,8.84-.93,12-2.25A30.17,30.17,0,0,1,21.36,9.9,8.29,8.29,0,0,0,25,6.57V6.23A10,10,0,0,1,22.91,8.78Z" transform="translate(0 -3.3)"/><path class="cls-6" d="M22.84,8.83a7,7,0,0,1-1.64,1,30,30,0,0,0-9.31,2.86C8.77,14,6.59,15.7,0,14.89v0c6.6,0.86,8.79-.91,11.91-2.22a28.67,28.67,0,0,1,9.35-2.79A8.18,8.18,0,0,0,25,6.59V6.25A9.83,9.83,0,0,1,22.84,8.83Z" transform="translate(0 -3.3)"/><path class="cls-6" d="M12.78,12.26a24.16,24.16,0,0,1,3.52-1.33,14.38,14.38,0,0,0-3.93,1.49Z" transform="translate(0 -3.3)"/><path class="cls-6" d="M0,14.83v0.06c6.54,0.77,9.51-1,12.37-2.47C9.15,13.69,6.82,15.53,0,14.83Z" transform="translate(0 -3.3)"/><path class="cls-6" d="M25,6.32a9.09,9.09,0,0,1-2.26,2.61,61.9,61.9,0,0,1-6.44,2,10.74,10.74,0,0,1,1.76-.18c2.93-.69,5.11-1.09,6.94-4V6.32Z" transform="translate(0 -3.3)"/><path class="cls-6" d="M12.71,12.25a24.45,24.45,0,0,1,3.5-1.33,14.57,14.57,0,0,0-3.86,1.46Z" transform="translate(0 -3.3)"/><path class="cls-6" d="M25,6.71V6.34A9,9,0,0,1,22.65,9c-1.49.65-4,1.2-6.43,2a10.53,10.53,0,0,1,1.79-.2C21,10,23.15,9.65,25,6.71Z" transform="translate(0 -3.3)"/><path class="cls-6" d="M0,14.8v0.06c6.54,0.75,9.5-1,12.36-2.47C9.13,13.66,6.82,15.48,0,14.8Z" transform="translate(0 -3.3)"/><path class="cls-6" d="M0,14.61V14.7c5.64,0.57,7.8.17,10.24-1.42C7.82,14.46,5.3,14.57,0,14.61Z" transform="translate(0 -3.3)"/><path class="cls-6" d="M20.05,10.29c0.39-.19.76-0.37,1.12-0.57-2.18,1-4.92.72-7.86,2a19.8,19.8,0,0,0-3.07,1.53A33.64,33.64,0,0,1,20.05,10.29Z" transform="translate(0 -3.3)"/><path class="cls-6" d="M22.49,9.07a7.67,7.67,0,0,1-1.68.8,25.09,25.09,0,0,0-9.21,2.77C8.58,13.94,6.4,15.47,0,14.77v0c6.42,0.74,8.6-.82,11.64-2.13A24.18,24.18,0,0,1,20.88,10,7.82,7.82,0,0,0,25,6.74V6.38A8.52,8.52,0,0,1,22.49,9.07Z" transform="translate(0 -3.3)"/><path class="cls-6" d="M22.42,9.11a7.7,7.7,0,0,1-1.7.77,24.2,24.2,0,0,0-9.17,2.75c-3,1.3-5.19,2.79-11.54,2.11v0c6.37,0.72,8.55-.8,11.57-2.1A23.34,23.34,0,0,1,20.78,10,7.8,7.8,0,0,0,25,6.77V6.4A8.37,8.37,0,0,1,22.42,9.11Z" transform="translate(0 -3.3)"/><path class="cls-6" d="M22.34,9.15a8.21,8.21,0,0,1-1.72.75c-2.57,0-6.31,1.28-9.15,2.72S6.31,15.35,0,14.71v0c6.32,0.69,8.51-.78,11.5-2.08S18.1,10,20.68,10A7.75,7.75,0,0,0,25,6.79V6.43A8.24,8.24,0,0,1,22.34,9.15Z" transform="translate(0 -3.3)"/><path class="cls-6" d="M22.27,9.19a8.42,8.42,0,0,1-1.75.72c-2.6,0-6.3,1.28-9.12,2.71S6.26,15.3,0,14.68v0c6.27,0.66,8.46-.76,11.43-2.05S18,9.94,20.59,10A7.74,7.74,0,0,0,25,6.81V6.46A8.1,8.1,0,0,1,22.27,9.19Z" transform="translate(0 -3.3)"/><path class="cls-6" d="M22.14,9.26a9.43,9.43,0,0,1-1.71.66c-2.62-.07-6.29,1.27-9.09,2.68S6.21,15.24,0,14.64v0c6.23,0.63,8.41-.74,11.36-2s6.5-2.73,9.13-2.62A7.59,7.59,0,0,0,25,6.9V6.54A7.68,7.68,0,0,1,22.14,9.26Z" transform="translate(0 -3.3)"/><path class="cls-6" d="M0,14.42v0.09c5.79,0.46,7.89,0,10.39-1.57C7.92,14.09,5.38,14.2,0,14.42Z" transform="translate(0 -3.3)"/><path class="cls-6" d="M20.43,10.08l0.84-.45c-2.32,1-5.19.66-8.27,2a20,20,0,0,0-2.61,1.27A41.83,41.83,0,0,1,20.43,10.08Z" transform="translate(0 -3.3)"/><path class="cls-6" d="M24.81,6.9a13.39,13.39,0,0,1-3.53,2.73c0.27-.11.54-0.21,0.81-0.34A7.89,7.89,0,0,0,24.81,6.9Z" transform="translate(0 -3.3)"/><path class="cls-6" d="M22,9.32a9.71,9.71,0,0,1-1.77.62c-2.66-.13-6.25,1.27-9,2.65s-5.08,2.53-11.2,2v0c6.14,0.57,8.32-.71,11.23-2s6.39-2.76,9.06-2.6A7.74,7.74,0,0,0,25,6.94V6.67A7.73,7.73,0,0,1,22,9.32Z" transform="translate(0 -3.3)"/><path class="cls-6" d="M21.92,9.35a10.26,10.26,0,0,1-1.79.6c-2.68-.15-6.23,1.27-9,2.63S6.07,15.07,0,14.55v0c6.09,0.54,8.27-.69,11.16-2s6.34-2.78,9-2.59A7.76,7.76,0,0,0,25,7V6.7A7.66,7.66,0,0,1,21.92,9.35Z" transform="translate(0 -3.3)"/><path class="cls-6" d="M21.84,9.38A10,10,0,0,1,20,10c-2.7-.18-6.21,1.28-9,2.62S6,15,0,14.52v0c6,0.52,8.23-.67,11.09-1.93s6.29-2.78,9-2.57A7.83,7.83,0,0,0,25,7V6.73A7.58,7.58,0,0,1,21.84,9.38Z" transform="translate(0 -3.3)"/><path class="cls-6" d="M21.76,9.41a10.59,10.59,0,0,1-1.83.55c-2.71-.2-6.19,1.28-8.93,2.61S6,15,0,14.49v0c6,0.49,8.18-.65,11-1.91s6.24-2.79,9-2.56a7.84,7.84,0,0,0,5-3V6.76A7.54,7.54,0,0,1,21.76,9.41Z" transform="translate(0 -3.3)"/><path class="cls-6" d="M21.68,9.44a11.15,11.15,0,0,1-1.85.53c-2.73-.22-6.17,1.28-8.9,2.6S5.93,14.89,0,14.46v0c5.95,0.46,8.13-.64,11-1.88s6.19-2.8,8.93-2.55a7.91,7.91,0,0,0,5.11-3V6.8A7.45,7.45,0,0,1,21.68,9.44Z" transform="translate(0 -3.3)"/><path class="cls-6" d="M0,14.2H0c6.32,0.1,8.72-.45,11.52-1.93C8.73,13.51,6.13,14,0,14.2Z" transform="translate(0 -3.3)"/><path class="cls-6" d="M25,6.79a14,14,0,0,1-3.48,2.68h0.06A7.5,7.5,0,0,0,25,6.83v0Z" transform="translate(0 -3.3)"/><path class="cls-6" d="M20.71,9.92l0.81-.44c-2.48-.06-6.58,1.28-10,2.8A50.48,50.48,0,0,1,20.71,9.92Z" transform="translate(0 -3.3)"/><path class="cls-6" d="M0,14.17H0c6.29,0.08,8.68-.44,11.46-1.91C8.68,13.49,6.1,13.93,0,14.17Z" transform="translate(0 -3.3)"/><path class="cls-6" d="M20.67,9.9l0.77-.42c-2.49-.1-6.57,1.25-10,2.77A48.84,48.84,0,0,1,20.67,9.9Z" transform="translate(0 -3.3)"/><path class="cls-6" d="M25,6.81a14.27,14.27,0,0,1-3.56,2.68h0A7.39,7.39,0,0,0,25,6.85v0Z" transform="translate(0 -3.3)"/><path class="cls-6" d="M21.4,9.54a13.67,13.67,0,0,1-1.87.45c-2.77-.27-6.11,1.3-8.79,2.56S5.8,14.72,0,14.37v0c5.81,0.38,8-.59,10.76-1.81s6-2.82,8.82-2.52A8,8,0,0,0,25,7.2V7A7.22,7.22,0,0,1,21.4,9.54Z" transform="translate(0 -3.3)"/><path class="cls-6" d="M21.32,9.56a14.54,14.54,0,0,1-1.88.43c-2.79-.28-6.09,1.31-8.76,2.55S5.75,14.67,0,14.34v0c5.76,0.36,7.95-.57,10.7-1.79s6-2.82,8.79-2.51a14.71,14.71,0,0,0,1.88-.41A7.08,7.08,0,0,0,25,7.24V7A7.21,7.21,0,0,1,21.32,9.56Z" transform="translate(0 -3.3)"/><path class="cls-6" d="M21.24,9.58a15.1,15.1,0,0,1-1.91.42c-2.8-.29-6.07,1.31-8.72,2.54S5.7,14.61,0,14.31v0c5.72,0.33,7.9-.56,10.63-1.76s5.94-2.82,8.75-2.5A8.27,8.27,0,0,0,25,7.29V7A7.2,7.2,0,0,1,21.24,9.58Z" transform="translate(0 -3.3)"/><path class="cls-6" d="M21.16,9.6a17,17,0,0,1-1.92.4c-2.81-.3-6,1.32-8.69,2.53S5.66,14.55,0,14.28v0c5.67,0.31,7.86-.54,10.57-1.73s5.9-2.82,8.71-2.49A8.38,8.38,0,0,0,25,7.32V7.07A7.19,7.19,0,0,1,21.16,9.6Z" transform="translate(0 -3.3)"/><path class="cls-6" d="M21.07,9.62a17.23,17.23,0,0,1-1.94.38c-2.82-.31-6,1.33-8.65,2.52S5.61,14.5,0,14.24v0c5.62,0.28,7.81-.53,10.5-1.71s5.85-2.82,8.68-2.48A8.51,8.51,0,0,0,25,7.36V7.1A7.19,7.19,0,0,1,21.07,9.62Z" transform="translate(0 -3.3)"/><path class="cls-6" d="M0,14v0c6.33,0,8.64-.46,11.46-2C8.65,13.26,6.07,13.57,0,14Z" transform="translate(0 -3.3)"/><path class="cls-6" d="M20.89,9.8l0.78-.41c-0.25.09-.47,0.19-0.73,0.26-2.49-.28-6.29,1-9.48,2.41A54.16,54.16,0,0,1,20.89,9.8Z" transform="translate(0 -3.3)"/><path class="cls-6" d="M25,7a14.52,14.52,0,0,1-3.33,2.39A7.34,7.34,0,0,0,25,7.15V7Z" transform="translate(0 -3.3)"/><path class="cls-6" d="M20.91,9.65c-0.62.15-1.29,0.25-2,.35-2.83-.31-6,1.34-8.58,2.5S5.52,14.39,0,14.18v0c5.53,0.23,7.72-.5,10.37-1.66s5.76-2.81,8.6-2.47a8.78,8.78,0,0,0,6-2.66V7.18A7.25,7.25,0,0,1,20.91,9.65Z" transform="translate(0 -3.3)"/><path class="cls-6" d="M20.83,9.67c-0.63.14-1.3,0.24-2,.34-2.84-.32-5.95,1.35-8.54,2.5S5.47,14.33,0,14.15v0c5.48,0.21,7.67-.49,10.31-1.64S16,9.74,18.88,10.09A8.92,8.92,0,0,0,25,7.45V7.22A7.24,7.24,0,0,1,20.83,9.67Z" transform="translate(0 -3.3)"/><path class="cls-6" d="M20.75,9.69c-0.64.14-1.31,0.23-2,.32-2.85-.32-5.92,1.36-8.5,2.48S5.42,14.27,0,14.12v0c5.44,0.18,7.63-.48,10.24-1.62s5.67-2.8,8.53-2.45C21.3,9.85,23.36,9.24,25,7.5V7.26A7.32,7.32,0,0,1,20.75,9.69Z" transform="translate(0 -3.3)"/><path class="cls-6" d="M0,13.92H0c4.43,0,6.62.17,8.82-.87C6.67,13.92,4.39,13.74,0,13.92Z" transform="translate(0 -3.3)"/><path class="cls-6" d="M18.25,10.19l2.19-.47c-0.58.11-1.18,0.21-1.82,0.29-3.4-.06-6.79,1.59-9.81,3C12,11.81,15,10.32,18.25,10.19Z" transform="translate(0 -3.3)"/><path class="cls-6" d="M20.58,9.71c-0.65.13-1.34,0.21-2.06,0.3-2.86-.32-5.87,1.38-8.43,2.47S5.33,14.17,0,14.06v0c5.35,0.13,7.53-.46,10.12-1.57s5.58-2.78,8.45-2.44C21.19,9.86,23.31,9.3,25,7.57V7.34A7.37,7.37,0,0,1,20.58,9.71Z" transform="translate(0 -3.3)"/><path class="cls-6" d="M25,7.23a14.43,14.43,0,0,1-3.12,2.13,7,7,0,0,0,3.12-2V7.23Z" transform="translate(0 -3.3)"/><path class="cls-6" d="M0,13.84V14c5.83,0,8-.22,10.84-1.89C8.16,13.17,5.63,13.19,0,13.84Z" transform="translate(0 -3.3)"/><path class="cls-6" d="M21.14,9.73l0.73-.37a12.19,12.19,0,0,1-1.43.38c-0.64.11-1.32,0.19-2,.27a17.54,17.54,0,0,0-7.58,2A55.84,55.84,0,0,1,21.14,9.73Z" transform="translate(0 -3.3)"/><path class="cls-6" d="M20.36,9.75c-0.65.11-1.33,0.18-2,.26-2.87-.31-5.82,1.4-8.35,2.45S5.24,14.06,0,14v0c5.25,0.09,7.44-.43,10-1.52s5.5-2.76,8.38-2.42c2.7-.19,4.91-0.68,6.63-2.37V7.47A7.43,7.43,0,0,1,20.36,9.75Z" transform="translate(0 -3.3)"/><path class="cls-6" d="M20.28,9.76c-0.65.1-1.34,0.18-2.05,0.26-2.87-.31-5.79,1.41-8.31,2.44S5.2,14,0,14v0c5.21,0.07,7.4-.42,9.93-1.5s5.46-2.75,8.34-2.41C21,9.9,23.25,9.44,25,7.76V7.51A7.52,7.52,0,0,1,20.28,9.76Z" transform="translate(0 -3.3)"/><path class="cls-6" d="M20.19,9.77c-0.66.1-1.35,0.17-2.07,0.25C11.46,10.17,9.8,14.52,0,14v0c9.82,0.56,11.48-3.86,18.16-4,0.72-.07,1.41-0.13,2.07-0.22A7.58,7.58,0,0,0,25,7.75V7.55A7.59,7.59,0,0,1,20.19,9.77Z" transform="translate(0 -3.3)"/><path class="cls-6" d="M0,13.75H0c4.36-.1,6.52.12,8.71-0.89C6.58,13.7,4.32,13.47,0,13.75Z" transform="translate(0 -3.3)"/><path class="cls-6" d="M18.12,10.12l1.7-.32C19.24,9.88,18.65,9.95,18,10c-3.32,0-6.43,1.57-9.31,2.86C11.84,11.7,14.84,10.22,18.12,10.12Z" transform="translate(0 -3.3)"/><path class="cls-6" d="M6,13.6c2.92-.36,4.94-1.91,7.55-2.75A34.49,34.49,0,0,0,9.43,12.5,15.09,15.09,0,0,1,6,13.6Z" transform="translate(0 -3.3)"/><path class="cls-6" d="M0,13.75H0c2.69-.07,4.4.17,6-0.14C4.4,13.85,2.66,13.6,0,13.75Z" transform="translate(0 -3.3)"/><path class="cls-6" d="M25,7.63a7.78,7.78,0,0,1-5,2.16c-0.67.09-1.38,0.15-2.11,0.23l-1.12.13c0.39,0,.78-0.06,1.16-0.07,2.88-.18,5.23-0.55,7-2.21V7.63Z" transform="translate(0 -3.3)"/><path class="cls-6" d="M5.9,13.57c2.9-.35,4.92-1.87,7.5-2.71A37.17,37.17,0,0,0,9.35,12.5,14.75,14.75,0,0,1,5.9,13.57Z" transform="translate(0 -3.3)"/><path class="cls-6" d="M0,13.72H0c2.66-.08,4.36.15,5.9-0.15C4.36,13.81,2.63,13.57,0,13.72Z" transform="translate(0 -3.3)"/><path class="cls-6" d="M25,7.65A7.57,7.57,0,0,1,19.9,9.8c-0.68.08-1.38,0.14-2.08,0.22l-1.12.13c0.39,0,.78-0.06,1.16-0.07,2.63-.25,5.05-0.22,7.14-2.25V7.65Z" transform="translate(0 -3.3)"/><path class="cls-6" d="M5.85,13.54c2.89-.33,4.9-1.82,7.47-2.67a40.58,40.58,0,0,0-4,1.64A14.53,14.53,0,0,1,5.85,13.54Z" transform="translate(0 -3.3)"/><path class="cls-6" d="M0,13.68H0c2.63-.09,4.32.14,5.85-0.15C4.32,13.77,2.6,13.53,0,13.68Z" transform="translate(0 -3.3)"/><path class="cls-6" d="M25,7.68a7.69,7.69,0,0,1-5.19,2.13c-0.69.08-1.39,0.14-2.09,0.21-0.44,0-.88.09-1.32,0.15,0.46-.05.91-0.08,1.36-0.09,2.67-.25,5.13-0.19,7.24-2.21V7.68Z" transform="translate(0 -3.3)"/><path class="cls-6" d="M0,13.65H0a53.94,53.94,0,0,0,5.79-.15C4.28,13.73,2.57,13.49,0,13.65Z" transform="translate(0 -3.3)"/><path class="cls-6" d="M5.79,13.5c3.13-.35,5.26-2,8.11-2.84a35.54,35.54,0,0,0-4.73,1.84A14.32,14.32,0,0,1,5.79,13.5Z" transform="translate(0 -3.3)"/><path class="cls-6" d="M25,7.72a7.78,7.78,0,0,1-5.27,2.1l-2.11.2c-0.53,0-1.07.1-1.59,0.19a14.51,14.51,0,0,1,1.63-.13c2.7-.25,5.2-0.15,7.34-2.16V7.72Z" transform="translate(0 -3.3)"/><path class="cls-7" d="M25,16c-1,.41-2.4-0.53-3.95-1.17-2.7-1.5-5.93-2-8-1.35a12.65,12.65,0,0,1-9.58-.7c3.33,1.53,6,2,9.69.78l0.12,0A10.7,10.7,0,0,1,21,14.92c1.54,0.65,2.9,1.65,4,1.19V16Z" transform="translate(0 -3.3)"/><path class="cls-7" d="M20.73,14.68a10.87,10.87,0,0,0-7.86-1.14C8.67,15.25,5.11,13.15,0,11.7v0.1c5.13,1.4,8.68,3.56,12.87,1.8a10.67,10.67,0,0,1,7.93,1.21c1.64,0.69,3.11,1.82,4.2,1.41v-0.3C23.91,16.47,22.4,15.35,20.73,14.68Z" transform="translate(0 -3.3)"/><path class="cls-7" d="M20.88,14.73c-2.6-1.36-5.68-1.88-7.75-1.24C8.88,15.21,5.43,13.3,0,11.7v0.1c5.45,1.55,8.89,3.52,13.13,1.75,2.07-.66,5.2-0.12,7.82,1.31,1.61,0.68,3,1.68,4,1.24V15.8C24,16.38,22.52,15.39,20.88,14.73Z" transform="translate(0 -3.3)"/><path class="cls-7" d="M20.49,14.55a10.92,10.92,0,0,0-7.61-1C8.75,15.25,5.39,13.17,0,11.67v0.1c5.41,1.44,8.76,3.59,12.89,1.85a10.66,10.66,0,0,1,7.68,1.06C22.32,15.39,23.91,16.61,25,16V15.68C23.91,16.45,22.28,15.24,20.49,14.55Z" transform="translate(0 -3.3)"/><path class="cls-7" d="M19,13.95c-2.87-1.41-5.57-.3-7.39-0.09-3.73,1.4-7-1.32-11.59-2.28v0.09c4.56,0.93,7.87,3.68,11.59,2.25,1.83-.2,4.56-1.36,7.46.12,2.19,0.68,4.49,2.91,5.95,1.7V15.38C23.55,16.82,21.21,14.6,19,13.95Z" transform="translate(0 -3.3)"/><path class="cls-7" d="M18.73,13.86c-2.85-1.32-5.44-.13-7.26,0C7.8,15.24,4.57,12.5,0,11.55v0.09c4.6,0.94,7.83,3.7,11.5,2.32,1.82-.17,4.44-1.39,7.31,0,2.27,0.66,4.7,3,6.19,1.62V15.19C23.53,16.85,21,14.49,18.73,13.86Z" transform="translate(0 -3.3)"/><path class="cls-7" d="M18.48,13.77c-2.81-1.22-5.3,0-7.11.15C7.76,15.22,4.61,12.47,0,11.52V11.6C4.65,12.55,7.79,15.32,11.43,14c1.81-.14,4.33-1.4,7.15-0.11C20.93,14.5,23.5,17,25,15.35V15C23.51,16.86,20.87,14.38,18.48,13.77Z" transform="translate(0 -3.3)"/><path class="cls-7" d="M18.26,13.7c-2.76-1.13-5.16.14-7,.25C7.72,15.22,4.65,12.46,0,11.49v0.08c4.69,1,7.75,3.74,11.36,2.44,1.79-.13,4.22-1.4,7-0.22,2.42,0.6,5.13,3.16,6.64,1.35V14.76C23.5,16.85,20.73,14.27,18.26,13.7Z" transform="translate(0 -3.3)"/><path class="cls-7" d="M18,13.64c-2.72-1-5,.25-6.81.34C7.68,15.21,4.69,12.44,0,11.46v0.08c4.68,1,7.55,3.72,11,2.58,1.84-.06,4.13-1.48,6.9-0.43,2.52,0.51,5.46,3.19,7,1.25V14.54C23.5,16.84,20.58,14.17,18,13.64Z" transform="translate(0 -3.3)"/><path class="cls-7" d="M0,11.47H0c2.85,0.75,4.76,2,6.74,2.44C4.79,13.34,2.77,12,0,11.47Z" transform="translate(0 -3.3)"/><path class="cls-7" d="M25,14.34l0,0.07c-1.44,1.93-3.17.55-5-.08,2,0.72,3.79,2.22,5.06.42V14.34Z" transform="translate(0 -3.3)"/><path class="cls-7" d="M6.74,13.92a7.9,7.9,0,0,0,4,.27c1.92-.26,4-1.24,6.81-0.61C13,12.68,10.11,15,6.74,13.92Z" transform="translate(0 -3.3)"/><path class="cls-7" d="M24.75,14.51c-4.54,1-10.3-2.67-13.73-.83s-6.13-.94-11-2.22v0.08c4.92,1.27,7.63,4.1,11.1,2.45,3.4-2.15,9.24,1.63,13.76.75L25,14.54V14.12C24.92,14.26,24.84,14.4,24.75,14.51Z" transform="translate(0 -3.3)"/><path class="cls-7" d="M0.09,11.42c2.72,0.72,4.56,2,6.41,2.46C4.68,13.27,2.79,12,.09,11.42Z" transform="translate(0 -3.3)"/><path class="cls-7" d="M6.5,13.88a7.73,7.73,0,0,0,3.74.45c1.95-.12,4-1.3,6.87-0.84C12.67,13,9.89,15.14,6.5,13.88Z" transform="translate(0 -3.3)"/><path class="cls-7" d="M25,13.92a5.51,5.51,0,0,1-.46.67c-1.86,1.55-4.18-.52-6.36-0.88,2.38,0.41,4.85,2.8,6.48,1.12A5.35,5.35,0,0,0,25,14.36V13.92Z" transform="translate(0 -3.3)"/><path class="cls-7" d="M24.32,14.65c-2.29,1-5.63-1.23-8.15-1.3-2.63-.48-4.44,1.23-6.19,1-3.23.63-5.88-2.23-10-3v0.09c4.12,0.77,6.77,3.66,10,3,1.75,0.27,3.57-1.48,6.22-1,2.54,0.1,5.91,2.46,8.18,1.47A4.69,4.69,0,0,0,25,14.15V13.74A5,5,0,0,1,24.32,14.65Z" transform="translate(0 -3.3)"/><path class="cls-7" d="M24.09,14.68c-2.36.73-5.62-1.3-8.07-1.33-2.55-.38-4.3,1.24-6,1C6.79,15,4.25,12.14,0,11.29v0.13c4.55,1,6.83,3.5,9.69,3,1.88,0.39,3.68-1.44,6.35-1,2.55,0,6,2.25,8.18,1.5A4.15,4.15,0,0,0,25,14v-0.4A4.47,4.47,0,0,1,24.09,14.68Z" transform="translate(0 -3.3)"/><path class="cls-7" d="M23.86,14.7c-2.42.46-5.6-1.37-8-1.34-2.49-.3-4.19,1.25-5.9,1C6.78,15,4.31,12.15,0,11.27v0.09c4.33,0.87,6.8,3.77,10,3.1,1.72,0.22,3.42-1.37,5.93-1,2.41,0,5.63,1.91,8,1.51a3.85,3.85,0,0,0,1-1.09V13.39A4.25,4.25,0,0,1,23.86,14.7Z" transform="translate(0 -3.3)"/><path class="cls-7" d="M9.32,14.48C6.23,14.78,3.84,12,0,11.22v0.15c3.93,0.85,6.26,3.29,9.14,3.18,1.42,0.43,2.72-.51,4.4-0.93A17.4,17.4,0,0,0,9.32,14.48Z" transform="translate(0 -3.3)"/><path class="cls-7" d="M13.53,13.61a24.49,24.49,0,0,1,3.53-.06,7.1,7.1,0,0,0-1.75-.13A5.8,5.8,0,0,0,13.53,13.61Z" transform="translate(0 -3.3)"/><path class="cls-7" d="M25,13.23a4,4,0,0,1-1.37,1.46,29.26,29.26,0,0,0-6.57-1.13c2.2,0.38,4.72,1.44,6.69,1.35A3.67,3.67,0,0,0,25,13.65V13.23Z" transform="translate(0 -3.3)"/><path class="cls-7" d="M23.39,14.67c-2.67-.08-6-1.54-8.48-1.26-2.55,0-4.17,1.72-6,1.1C6.14,14.54,4,12.18,0,11.26v0.09c4,0.9,6.12,3.26,8.86,3.24,1.89,0.65,3.51-1.15,6.09-1.12,2.46-.28,5.88,1.25,8.57,1.42A3.48,3.48,0,0,0,25,13.51v-0.4A3.75,3.75,0,0,1,23.39,14.67Z" transform="translate(0 -3.3)"/><path class="cls-7" d="M23.15,14.63c-6.45-2.36-11.47-.36-14.54-0.08C5.9,14.39,3.67,12.08,0,11.24v0.09c3.65,0.82,5.87,3.14,8.58,3.29,3.1-.26,8.17-2.37,14.69.22A3.31,3.31,0,0,0,25,13.39V13A3.61,3.61,0,0,1,23.15,14.63Z" transform="translate(0 -3.3)"/><path class="cls-7" d="M0,11.48c2.53,0.89,4.75,2.09,6.93,2.74-2.07-.73-4.08-2.34-6.93-3v0.26Z" transform="translate(0 -3.3)"/><path class="cls-7" d="M13.71,13.64c-1.81.48-3.29,1.08-4.7,1A7.88,7.88,0,0,0,13.71,13.64Z" transform="translate(0 -3.3)"/><path class="cls-7" d="M22.32,14.57c-3.83-1.39-6.69-1.63-8.62-.93C15.9,12.75,19.25,13.92,22.32,14.57Z" transform="translate(0 -3.3)"/><path class="cls-7" d="M25,12.71a3.43,3.43,0,0,1-2.36,1.8,4,4,0,0,1-.54,0l0.66,0.23A3.19,3.19,0,0,0,25,13.12V12.71Z" transform="translate(0 -3.3)"/><path class="cls-7" d="M0,11.45c2.58,0.9,4.88,2.27,7.17,2.93C5,13.7,3,12,0,11.22v0.23Z" transform="translate(0 -3.3)"/><path class="cls-7" d="M13.17,13.8c-1.83.56-3.35,1.12-4.8,0.83a6,6,0,0,1-1-.19A7.18,7.18,0,0,0,13.17,13.8Z" transform="translate(0 -3.3)"/><path class="cls-7" d="M22.11,14.48c-4.19-1.62-7-1.45-8.94-.67C15.34,12.78,18.77,13.65,22.11,14.48Z" transform="translate(0 -3.3)"/><path class="cls-7" d="M22.39,14.44c-6.77-2.61-11,.52-14,0.26C5.6,14.43,3.56,12.12,0,11.21v0c3.56,0.79,5.55,3.43,8.46,3.53,3,0.28,6.59-3,14-.16A3.21,3.21,0,0,0,25,13V12.58A3.42,3.42,0,0,1,22.39,14.44Z" transform="translate(0 -3.3)"/><path class="cls-7" d="M22.12,14.36c-7.52-2.65-10.81.86-13.81,0.41C5.42,14.6,3.51,12,0,11.18v0.09c3.48,0.8,5.4,3.4,8.29,3.57,3,0.49,6.33-3.19,14-.3A3.24,3.24,0,0,0,25,12.87V12.46A3.43,3.43,0,0,1,22.12,14.36Z" transform="translate(0 -3.3)"/><path class="cls-7" d="M21.86,14.27c-7.56-2.59-10.64,1.11-13.62.56C5.31,14.63,3.47,12,0,11.19v0.09c3.44,0.8,5.29,3.41,8.21,3.62,3,0.6,6.1-3.28,13.77-.46a3.27,3.27,0,0,0,3-1.69V12.33A3.46,3.46,0,0,1,21.86,14.27Z" transform="translate(0 -3.3)"/><path class="cls-7" d="M21.59,14.17c-7.6-2.5-10.48,1.38-13.46.71C5.18,14.64,3.42,12,0,11.2v0.1C3.39,12.09,5.16,14.71,8.1,15c3,0.72,5.9-3.35,13.61-.62A3.36,3.36,0,0,0,25,12.63V12.2A3.53,3.53,0,0,1,21.59,14.17Z" transform="translate(0 -3.3)"/><path class="cls-7" d="M21.31,14.08C13.67,11.69,11,15.72,8,14.94c-3-.3-4.63-2.93-8-3.72H0v0.1c3.32,0.78,5,3.4,8,3.7,3,0.84,5.72-3.39,13.47-.78A3.45,3.45,0,0,0,25,12.5V12.09A3.61,3.61,0,0,1,21.31,14.08Z" transform="translate(0 -3.3)"/><path class="cls-7" d="M21,14c-7.69-2.25-10.22,1.92-13.21,1-2.92-.35-4.51-2.88-7.66-3.7L0,11.24v0.09H0C3,12.25,5,14.53,7.78,15c3,0.94,6.29-3.42,13.38-.9A3.56,3.56,0,0,0,25,12.4V12A3.71,3.71,0,0,1,21,14Z" transform="translate(0 -3.3)"/><path class="cls-7" d="M20.76,13.88C13,11.79,10.66,16.07,7.66,15c-2.88-.41-4.41-2.86-7.39-3.69L0,11.27v0.09l0.1,0C3,12.32,4.8,14.51,7.59,15.08c3,1.09,6.15-3.43,13.29-1.05A3.7,3.7,0,0,0,25,12.29V11.86A3.84,3.84,0,0,1,20.76,13.88Z" transform="translate(0 -3.3)"/><path class="cls-7" d="M25,11.74a4,4,0,0,1-4.52,2c-7.75-1.9-10,2.46-13,1.31a6.45,6.45,0,0,1-1.37-.4,8,8,0,0,0,1.3.44c3.07,1.24,6-3.41,13.21-1.2A3.85,3.85,0,0,0,25,12.17V11.74Z" transform="translate(0 -3.3)"/><path class="cls-7" d="M0.31,11.4L0,11.3V11.4l0.14,0A29.77,29.77,0,0,1,5,14.1C3.49,13.2,2.19,12,.31,11.4Z" transform="translate(0 -3.3)"/><path class="cls-7" d="M20.2,13.68c-7-1.85-10,2.72-13,1.4C4.52,14.4,2.81,12.42.31,11.46L0,11.35v0.1l0.14,0c2.56,0.92,4.3,2.95,7,3.65,3.06,1.37,6-3.37,13.14-1.34,1.94,0.34,3.46.12,4.69-1.75V11.64C23.75,13.7,22.19,14,20.2,13.68Z" transform="translate(0 -3.3)"/><path class="cls-7" d="M19.91,13.58c-7-1.65-9.91,3-12.95,1.53C4.31,14.36,2.65,12.45.28,11.5L0,11.4v0.1l0.1,0c2.43,0.91,4.12,2.85,6.83,3.63,3.09,1.51,6-3.29,13.09-1.46,2.08,0.37,3.68.22,5-1.76V11.54C23.69,13.7,22,13.91,19.91,13.58Z" transform="translate(0 -3.3)"/><path class="cls-7" d="M19.62,13.48c-7-1.42-9.83,3.23-12.91,1.64C4.08,14.3,2.46,12.47.21,11.54L0,11.46v0.12H0c2.44,0.72,3.79,2.86,6.64,3.61,3.19,1.59,5.15-2.94,13.07-1.59,2.21,0.39,3.91.32,5.26-1.75V11.45C23.63,13.71,21.88,13.83,19.62,13.48Z" transform="translate(0 -3.3)"/><path class="cls-7" d="M19.34,13.39c-7.05-1.18-9.78,3.46-12.88,1.73-2.62-.89-4.21-2.64-6.34-3.55L0,11.53v0.12c2.29,0.73,3.6,2.74,6.41,3.56,3.22,1.7,5.13-2.77,13-1.69,2.34,0.4,4.14.43,5.55-1.74V11.34C23.57,13.71,21.73,13.75,19.34,13.39Z" transform="translate(0 -3.3)"/><path class="cls-7" d="M19,13.31C12,12.39,9.32,17,6.18,15.13,3.57,14.17,2,12.52,0,11.62v0.12c2.1,0.74,3.38,2.59,6.14,3.48,3.25,1.79,5.13-2.56,13-1.79,2.48,0.4,4.37.52,5.84-1.75V11.24C23.51,13.71,21.58,13.67,19,13.31Z" transform="translate(0 -3.3)"/><path class="cls-7" d="M18.76,13.23c-7.19-.58-9.9,4-13.13,1.8C3.25,14,1.78,12.6,0,11.73v0.13C1.74,12.7,3.23,14,5.59,15.08c3.34,2.28,5.92-2.44,13.28-1.75,2.61,0.4,4.6.6,6.13-1.77V11.13C23.46,13.71,21.43,13.58,18.76,13.23Z" transform="translate(0 -3.3)"/><path class="cls-7" d="M18.47,13.15C11.29,12.88,8.57,17.3,5.3,15,3,13.93,1.6,12.7,0,11.86V12c1.57,0.81,3,2,5.25,3,3.37,2.41,6-2.15,13.33-1.78,2.75,0.38,4.83.68,6.42-1.79V11C23.4,13.72,21.27,13.48,18.47,13.15Z" transform="translate(0 -3.3)"/><path class="cls-7" d="M18.19,13.09C11,13.14,8.26,17.36,5,14.93,2.79,13.88,1.43,12.8,0,12v0.14C1.4,12.91,2.78,13.93,4.9,15c3.4,2.52,6.06-1.83,13.39-1.8,2.88,0.35,5.07.76,6.71-1.83V10.92C23.35,13.73,21.12,13.38,18.19,13.09Z" transform="translate(0 -3.3)"/><path class="cls-7" d="M17.9,13c-7.13.39-10,4.37-13.3,1.85-2-1-3.34-1.95-4.6-2.7v0.14C1.24,13,2.56,13.9,4.55,14.92,8,17.54,10.71,13.44,18,13.12c3,0.3,5.3.83,7-1.86V10.82C23.29,13.75,21,13.28,17.9,13Z" transform="translate(0 -3.3)"/><path class="cls-7" d="M17.61,13c-7.09.73-10,4.43-13.37,1.83C2.36,13.83,1.12,13,0,12.37v0.14c1.1,0.63,2.35,1.37,4.19,2.33,3.47,2.7,6.28-1.11,13.53-1.79,3.13,0.25,5.53.91,7.28-1.89V10.74C23.23,13.77,20.8,13.17,17.61,13Z" transform="translate(0 -3.3)"/><path class="cls-7" d="M17.33,12.92c-7,1.08-10.06,4.46-13.46,1.81C2.16,13.83,1,13.17,0,12.59v0.14c1,0.54,2.15,1.17,3.81,2C7.31,17.52,10.23,14,17.43,13c3.26,0.18,5.76,1,7.57-1.93V10.65C23.18,13.79,20.64,13.05,17.33,12.92Z" transform="translate(0 -3.3)"/><path class="cls-7" d="M17,12.88c-7,1.43-10.13,4.45-13.56,1.76C2,13.86.88,13.3,0,12.81v0.13c0.88,0.45,2,1,3.42,1.74C7,17.47,10,14.36,17.15,13c3.38,0.1,6,1,7.85-2V10.53C23.13,13.8,20.48,12.93,17,12.88Z" transform="translate(0 -3.3)"/><path class="cls-7" d="M16.77,12.85c-6.94,1.78-10.2,4.41-13.68,1.7C1.78,13.89.79,13.43,0,13v0.12c0.79,0.36,1.77.8,3,1.44,3.57,2.79,6.75.11,13.85-1.66,3.5,0,6.21,1.08,8.13-2V10.43C23.07,13.82,20.32,12.81,16.77,12.85Z" transform="translate(0 -3.3)"/><path class="cls-7" d="M16.49,12.83C9.61,15,6.2,17.14,2.68,14.46c-1.1-.54-2-0.91-2.68-1.22v0.1c0.7,0.29,1.55.64,2.6,1.15,3.63,2.77,6.94.53,14-1.59C20.2,12.8,23,14,25,10.78V10.36C23,13.86,20.15,12.68,16.49,12.83Z" transform="translate(0 -3.3)"/><path class="cls-7" d="M16.22,12.81C9.39,15.28,5.83,17,2.25,14.36,1.36,14,.62,13.67,0,13.43v0.09c0.61,0.22,1.32.49,2.17,0.88,3.69,2.72,7.15,1,14.14-1.51C20,12.67,23,14.06,25,10.7V10.27C23,13.89,20,12.55,16.22,12.81Z" transform="translate(0 -3.3)"/><path class="cls-7" d="M15.95,12.8c-6.78,2.8-10.5,4-14.14,1.47C1.12,14,.52,13.77,0,13.59v0.07c0.5,0.16,1.08.36,1.72,0.63C5.48,16.93,9.1,15.7,16,12.87c3.82-.34,6.87,1.21,9-2.25V10.19C22.91,13.92,19.81,12.41,15.95,12.8Z" transform="translate(0 -3.3)"/><path class="cls-7" d="M15.68,12.8c-6.73,3.13-10.6,3.81-14.33,1.38C0.85,14,.41,13.85,0,13.74V13.8C0.38,13.91.8,14,1.25,14.21c3.85,2.5,7.63,1.83,14.52-1.35,3.92-.47,7.09,1.25,9.23-2.33V10.09C22.86,13.94,19.64,12.27,15.68,12.8Z" transform="translate(0 -3.3)"/><path class="cls-7" d="M15.42,12.81C8.72,16.26,4.69,16.37.86,14.11,0.55,14,.27,13.93,0,13.86v0.06C0.24,14,.49,14,0.75,14.13c4,2.32,7.9,2.24,14.75-1.26,4-.62,7.3,1.27,9.5-2.42V10C22.81,14,19.47,12.13,15.42,12.81Z" transform="translate(0 -3.3)"/><path class="cls-7" d="M15.15,12.83C8.5,16.58,4.31,16.09.34,14L0,14V14l0.23,0.05c4.09,2.09,8.2,2.64,15-1.19,4.1-.78,7.52,1.28,9.76-2.53V9.92C22.76,14,19.29,12,15.15,12.83Z" transform="translate(0 -3.3)"/><path class="cls-7" d="M14.89,12.85c-6.51,4-10.83,3-14.89,1.24v0.08c4.15,1.72,8.37,2.78,15-1.26,4.19-1,7.73,1.29,10-2.63V9.83C22.71,14,19.12,11.84,14.89,12.85Z" transform="translate(0 -3.3)"/><path class="cls-7" d="M14.64,12.88C8.44,17,4.08,15.6,0,14.25v0.07c4.16,1.36,8.43,2.75,14.72-1.39C19,11.8,22.65,14.22,25,10.19V9.75C22.66,14.08,18.94,11.69,14.64,12.88Z" transform="translate(0 -3.3)"/><path class="cls-7" d="M14.39,12.91C8.46,17,4.12,15.49,0,14.34V14.4C4.21,15.6,8.52,17.06,14.47,13c4.34-1.32,8.13,1.3,10.53-2.85V9.66C22.61,14.13,18.77,11.54,14.39,12.91Z" transform="translate(0 -3.3)"/><path class="cls-7" d="M14.14,12.95C8.44,17,4.21,15.51,0,14.39v0.06C4.29,15.62,8.5,17,14.22,13c4.41-1.51,8.33,1.3,10.78-3V9.56C22.57,14.16,18.59,11.39,14.14,12.95Z" transform="translate(0 -3.3)"/><path class="cls-7" d="M13.89,13C8.43,16.92,4.3,15.54,0,14.44v0.05C4.37,15.65,8.49,17,14,13c4.48-1.71,8.53,1.29,11-3.12V9.45C22.52,14.21,18.42,11.24,13.89,13Z" transform="translate(0 -3.3)"/></g><g class="cls-8"><g class="cls-9"><path class="cls-5" d="M0.65,16.86A8.86,8.86,0,0,1,2,15.12c2.6-2.6,6.15-1.12,9.76-3.57C15.06,9.28,17.44,4,25,7.07V7c-7.58-3.11-10,2.25-13.23,4.52-3.63,2.45-7.22.84-9.82,3.36A12.46,12.46,0,0,0,0,17.58V18C0.21,17.63.43,17.23,0.65,16.86Z" transform="translate(0 -3.3)"/><path class="cls-5" d="M0,18.22c0.24-.47.48-0.91,0.73-1.32C3,13,5.4,14,9.73,12.66c1.77-.45,3.38-2.05,5.12-3.75a19.09,19.09,0,0,1-4,3.1c-3.68,1.73-7.18.77-9.21,3.46A10.8,10.8,0,0,0,0,17.72v0.5Z" transform="translate(0 -3.3)"/><path class="cls-5" d="M24.6,7.3c-5-1.67-7.7-.39-9.76,1.61C16.91,7.08,19.67,5.92,24.6,7.3Z" transform="translate(0 -3.3)"/><path class="cls-5" d="M0,18.4c0.28-.54.56-1,0.85-1.5a9.09,9.09,0,0,1,1.45-1.67c2.63-2.41,6.16-1.13,9.69-3.61A35.9,35.9,0,0,0,15.63,8.4c-1.78,1.33-3.15,2.94-4.76,3.66-3.65,1.75-7.14.88-9.18,3.53A10.76,10.76,0,0,0,0,18V18.4Z" transform="translate(0 -3.3)"/><path class="cls-5" d="M25,7.48V7.4c-4.55-1.75-7.26-.93-9.37,1C17.67,6.84,20.4,6.27,25,7.48Z" transform="translate(0 -3.3)"/><path class="cls-5" d="M1,16.86a8.66,8.66,0,0,1,1.43-1.58c2.64-2.33,6.16-1.15,9.65-3.64,3.2-2.33,5.54-7.11,12.94-4.3V7.25c-7.41-2.88-9.79,2-13,4.32C8.51,14.06,5,12.77,2.32,15A11.63,11.63,0,0,0,0,18v0.5A16.14,16.14,0,0,1,1,16.86Z" transform="translate(0 -3.3)"/><path class="cls-5" d="M1.09,16.9a8.36,8.36,0,0,1,1.45-1.56c2.66-2.25,6.15-1.17,9.61-3.67,3.18-2.34,5.52-7,12.85-4.24V7.34c-7.36-2.8-9.72,1.92-12.89,4.26-3.47,2.51-7,1.31-9.67,3.49A11.44,11.44,0,0,0,0,18.2v0.53A16.33,16.33,0,0,1,1.09,16.9Z" transform="translate(0 -3.3)"/><path class="cls-5" d="M1.17,16.95A8.33,8.33,0,0,1,2.66,15.4c2.67-2.17,6.15-1.18,9.57-3.69C15.39,9.35,17.72,4.87,25,7.53V7.43c-7.3-2.72-9.65,1.85-12.81,4.19-3.43,2.52-6.95,1.43-9.62,3.52A12,12,0,0,0,0,18.4v0.52A17.81,17.81,0,0,1,1.17,16.95Z" transform="translate(0 -3.3)"/><path class="cls-5" d="M1.27,17a8.25,8.25,0,0,1,1.51-1.52c2.68-2.1,6.14-1.2,9.52-3.72C15.46,9.37,17.77,5,25,7.62V7.52c-7.25-2.65-9.58,1.77-12.73,4.13-3.39,2.53-6.89,1.53-9.58,3.55A11.85,11.85,0,0,0,0,18.54v0.53A17.36,17.36,0,0,1,1.27,17Z" transform="translate(0 -3.3)"/><path class="cls-5" d="M1.42,16.95a8.16,8.16,0,0,1,1.49-1.44c2.69-2,6.13-1.22,9.48-3.75C15.53,9.39,17.82,5.21,25,7.7V7.61C17.81,5,15.48,9.32,12.35,11.69,9,14.22,5.51,13.32,2.82,15.27A11.41,11.41,0,0,0,0,18.66v0.52A15.61,15.61,0,0,1,1.42,16.95Z" transform="translate(0 -3.3)"/><path class="cls-5" d="M1.52,17A8.13,8.13,0,0,1,3,15.56c2.7-2,6.13-1.24,9.44-3.77,3.12-2.38,5.4-6.42,12.53-4V7.7c-7.14-2.49-9.45,1.64-12.57,4-3.33,2.53-6.78,1.73-9.5,3.61A11.33,11.33,0,0,0,0,18.81v0.53A15.48,15.48,0,0,1,1.52,17Z" transform="translate(0 -3.3)"/><path class="cls-5" d="M1.63,17a8.19,8.19,0,0,1,1.53-1.38c2.71-1.9,6.11-1.28,9.4-3.8,3.1-2.39,5.38-6.29,12.45-4V7.79c-7.09-2.41-9.39,1.58-12.48,4-3.29,2.53-6.73,1.82-9.45,3.64A11.31,11.31,0,0,0,0,19V19.5A15.33,15.33,0,0,1,1.63,17Z" transform="translate(0 -3.3)"/><path class="cls-5" d="M24,7.85A10.75,10.75,0,0,0,18.36,8,12.71,12.71,0,0,1,24,7.85Z" transform="translate(0 -3.3)"/><path class="cls-5" d="M8.3,14a8.33,8.33,0,0,0,3.37-1.74A17.57,17.57,0,0,1,8.3,14Z" transform="translate(0 -3.3)"/><path class="cls-5" d="M18.36,8c-2.94.84-4.8,2.76-6.69,4.23,0.32-.22.64-0.44,0.94-0.68C14.47,10.45,16,8.84,18.36,8Z" transform="translate(0 -3.3)"/><path class="cls-5" d="M0,19.64A15,15,0,0,1,1.73,17a8.12,8.12,0,0,1,1.55-1.36c1.26-.43,3.11-0.9,5-1.67a5.88,5.88,0,0,1-1.83.09c-2.74,1-4.72,1.7-6.47,4.7v0.83Z" transform="translate(0 -3.3)"/><path class="cls-5" d="M24,7.93a10.83,10.83,0,0,0-5.66.21A12.79,12.79,0,0,1,24,7.93Z" transform="translate(0 -3.3)"/><path class="cls-5" d="M8.36,14.09a8.49,8.49,0,0,0,3.31-1.72A18.34,18.34,0,0,1,8.36,14.09Z" transform="translate(0 -3.3)"/><path class="cls-5" d="M0,19.7A13.52,13.52,0,0,1,1.88,17a8.3,8.3,0,0,1,1.52-1.27c1.26-.4,3.08-0.88,5-1.65a5.94,5.94,0,0,1-1.81.12C3.78,15.25,1.78,16,0,19v0.7Z" transform="translate(0 -3.3)"/><path class="cls-5" d="M18.36,8.14c-2.93.85-4.79,2.77-6.69,4.23,0.35-.23.69-0.48,1-0.75C14.52,10.49,16,8.93,18.36,8.14Z" transform="translate(0 -3.3)"/><path class="cls-5" d="M2,17.05A8.08,8.08,0,0,1,3.53,15.8c2.28-.66,6.28-1.71,9.23-4.13,3.15-2,5.37-5.12,12.24-3.45V8.14c-6.89-1.73-9.12,1.5-12.28,3.45-3,2.43-7,3.41-9.29,4A10.62,10.62,0,0,0,0,19.37v0.47A13.06,13.06,0,0,1,2,17.05Z" transform="translate(0 -3.3)"/><path class="cls-5" d="M2.07,17.12a8.32,8.32,0,0,1,1.59-1.26c2.31-.61,6.25-1.75,9.19-4.15,3.12-2,5.35-5,12.15-3.42V8.21c-6.83-1.67-9.06,1.47-12.19,3.42-2.95,2.41-6.92,3.47-9.24,4A11.12,11.12,0,0,0,0,19.47V20A14.67,14.67,0,0,1,2.07,17.12Z" transform="translate(0 -3.3)"/><path class="cls-5" d="M2.17,17.16a8.44,8.44,0,0,1,1.61-1.24,24,24,0,0,0,9.14-4.17C16,9.79,18.25,6.82,25,8.37V8.29c-6.78-1.61-9,1.43-12.11,3.38a22.62,22.62,0,0,1-9.2,4A11.1,11.1,0,0,0,0,19.62v0.51A14.46,14.46,0,0,1,2.17,17.16Z" transform="translate(0 -3.3)"/><path class="cls-5" d="M2.28,17.19A8.41,8.41,0,0,1,3.91,16,23.34,23.34,0,0,0,13,11.79c3.07-2,5.29-4.83,12-3.34V8.37c-6.72-1.55-9,1.4-12,3.34a22.13,22.13,0,0,1-9.15,4.06,11.11,11.11,0,0,0-3.82,4v0.51A14.32,14.32,0,0,1,2.28,17.19Z" transform="translate(0 -3.3)"/><path class="cls-5" d="M25,8.64h0c-4.1-1.07-6.46-.79-8.46.67C18.54,8.08,21,7.94,25,8.64Z" transform="translate(0 -3.3)"/><path class="cls-5" d="M0,20.32a13.28,13.28,0,0,1,2.41-3.16c2.85-2.62,6.22-2.14,9.75-4.45,1.46-.85,2.79-2.3,4.38-3.4-3.27,2.32-6.17,5-9.61,5.3C4,15.76,1.92,16.4,0,19.73v0.59Z" transform="translate(0 -3.3)"/><path class="cls-5" d="M25,8.71h0c-4.08-1-6.42-.77-8.42.69C18.58,8.18,21,8,25,8.71Z" transform="translate(0 -3.3)"/><path class="cls-5" d="M0,20.51a13.37,13.37,0,0,1,2.54-3.28c2.85-2.55,6.2-2.15,9.7-4.47,1.44-.85,2.77-2.28,4.35-3.36-3.27,2.28-6.15,5-9.57,5.32-2.92,1.21-5.06,1.83-7,5.22v0.58Z" transform="translate(0 -3.3)"/><path class="cls-5" d="M25,8.87V8.73c-5.66-1.22-8,0-10.32,2.22C17,9.32,19.72,8.58,25,8.87Z" transform="translate(0 -3.3)"/><path class="cls-5" d="M5,15.48l-1,.84c2.12-1.43,4.73-1.27,7.64-3.11a17.16,17.16,0,0,0,3-2.25A30.7,30.7,0,0,1,5,15.48Z" transform="translate(0 -3.3)"/><path class="cls-5" d="M2.75,17.29A9.33,9.33,0,0,1,4.4,16.2,21.63,21.63,0,0,0,13.32,12C16.29,10,18.51,7.48,25,8.73V8.66c-6.51-1.31-8.73,1.27-11.71,3.21a20.45,20.45,0,0,1-9,4.13A11,11,0,0,0,0,20.26v0.48A12.94,12.94,0,0,1,2.75,17.29Z" transform="translate(0 -3.3)"/><path class="cls-5" d="M2.86,17.33a9.7,9.7,0,0,1,1.67-1.09A21.22,21.22,0,0,0,13.4,12C16.34,10.06,18.57,7.61,25,8.8V8.74C18.55,7.49,16.32,10,13.37,11.92a20.24,20.24,0,0,1-8.92,4.15A11,11,0,0,0,0,20.39v0.48A12.88,12.88,0,0,1,2.86,17.33Z" transform="translate(0 -3.3)"/><path class="cls-5" d="M3,17.37A10.39,10.39,0,0,1,4.65,16.3,21,21,0,0,0,13.48,12C16.4,10.11,18.62,7.74,25,8.88V8.81C18.6,7.62,16.38,10,13.45,12a20,20,0,0,1-8.87,4.17A11.08,11.08,0,0,0,0,20.54V21A12.78,12.78,0,0,1,3,17.37Z" transform="translate(0 -3.3)"/><path class="cls-5" d="M3.07,17.42a9.93,9.93,0,0,1,1.7-1.06c2.47-.33,6-2.09,8.79-4.28C16.45,10.16,18.67,7.88,25,9V8.88c-6.35-1.13-8.57,1.2-11.48,3.12-2.78,2.2-6.34,3.92-8.83,4.18A11.17,11.17,0,0,0,0,20.67v0.45A12.63,12.63,0,0,1,3.07,17.42Z" transform="translate(0 -3.3)"/><path class="cls-5" d="M3.23,17.41a11.53,11.53,0,0,1,1.66-1c2.49-.31,6-2.13,8.74-4.3C16.51,10.21,18.72,8,25,9V9C18.7,7.88,16.48,10.14,13.6,12c-2.76,2.17-6.28,4-8.78,4.2A10.9,10.9,0,0,0,0,20.73v0.43A12,12,0,0,1,3.23,17.41Z" transform="translate(0 -3.3)"/><path class="cls-5" d="M25,9.31V9.17c-5.84-1-8,.3-10.43,2.49C17,10.1,19.65,9.38,25,9.31Z" transform="translate(0 -3.3)"/><path class="cls-5" d="M4.85,16.26L4.08,17C6.33,15.44,9,15.5,12,13.51a17.14,17.14,0,0,0,2.55-1.85A53.71,53.71,0,0,1,4.85,16.26Z" transform="translate(0 -3.3)"/><path class="cls-5" d="M0.32,20.79C1.39,19.56,2.65,18.35,4.08,17c-0.25.16-.51,0.32-0.76,0.5A11.89,11.89,0,0,0,.32,20.79Z" transform="translate(0 -3.3)"/><path class="cls-5" d="M3.44,17.5a12.21,12.21,0,0,1,1.71-1c2.51-.28,5.92-2.21,8.64-4.32,2.83-1.89,5-3.95,11.21-3V9.1c-6.19-1-8.41,1.15-11.25,3-2.73,2.12-6.16,4-8.69,4.23A11.2,11.2,0,0,0,0,21v0.43A11.92,11.92,0,0,1,3.44,17.5Z" transform="translate(0 -3.3)"/><path class="cls-5" d="M3.54,17.55a11.86,11.86,0,0,1,1.72-1c2.52-.27,5.89-2.24,8.59-4.33,2.81-1.88,5-3.86,11.14-3V9.17c-6.14-.9-8.35,1.13-11.17,3-2.71,2.1-6.1,4-8.64,4.24a11.35,11.35,0,0,0-1.72.93A11.36,11.36,0,0,0,0,21.08v0.44A11.91,11.91,0,0,1,3.54,17.55Z" transform="translate(0 -3.3)"/><path class="cls-5" d="M3.65,17.59a12.81,12.81,0,0,1,1.74-1c2.53-.26,5.86-2.27,8.55-4.33,2.78-1.87,5-3.78,11.06-3V9.24c-6.09-.84-8.3,1.11-11.09,3-2.69,2.07-6,4-8.59,4.25A11.46,11.46,0,0,0,0,21.21v0.43A11.94,11.94,0,0,1,3.65,17.59Z" transform="translate(0 -3.3)"/><path class="cls-5" d="M3.76,17.63a12.55,12.55,0,0,1,1.75-.95c2.53-.25,5.83-2.31,8.5-4.34,2.76-1.86,5-3.7,11-3V9.31c-6-.78-8.25,1.09-11,3-2.68,2-6,4.06-8.54,4.26A11.52,11.52,0,0,0,0,21.31v0.45A12,12,0,0,1,3.76,17.63Z" transform="translate(0 -3.3)"/><path class="cls-5" d="M3.87,17.67a12.78,12.78,0,0,1,1.77-.94c2.54-.25,5.8-2.34,8.45-4.35C16.82,10.54,19,8.77,25,9.44V9.38c-6-.72-8.19,1.08-10.94,2.93-2.66,2-5.93,4.08-8.49,4.27a12.88,12.88,0,0,0-1.77.9,11.54,11.54,0,0,0-3.8,4v0.44A12.05,12.05,0,0,1,3.87,17.67Z" transform="translate(0 -3.3)"/><path class="cls-5" d="M25,9.74V9.57c-5.92-.66-8,0.54-10.46,2.7C17,10.78,19.65,10.13,25,9.74Z" transform="translate(0 -3.3)"/><path class="cls-5" d="M0,21.94c1.16-1.33,2.54-2.71,4.13-4.34L4,17.69a11.83,11.83,0,0,0-4,4.24v0Z" transform="translate(0 -3.3)"/><path class="cls-5" d="M4.76,17l-0.62.63C6.56,16,9.3,15.91,12.45,13.77a18.06,18.06,0,0,0,2.1-1.49C11,14.3,7.7,15.61,4.76,17Z" transform="translate(0 -3.3)"/><path class="cls-5" d="M25,9.81V9.69c-5.83-.43-8.12.59-10.78,2.85C16.76,11,19.41,10.23,25,9.81Z" transform="translate(0 -3.3)"/><path class="cls-5" d="M4.83,17.09l-0.56.57a14.28,14.28,0,0,1,1.61-.82,21.45,21.45,0,0,0,8.34-4.29C10.87,14.44,7.67,15.75,4.83,17.09Z" transform="translate(0 -3.3)"/><path class="cls-5" d="M0,22.06c1.19-1.35,2.63-2.73,4.27-4.4l-0.14.07A11.74,11.74,0,0,0,0,22v0Z" transform="translate(0 -3.3)"/><path class="cls-5" d="M4.24,17.77A15.93,15.93,0,0,1,6,16.88c2.56-.24,5.7-2.43,8.3-4.36S19.18,9.14,25,9.64V9.59c-5.83-.56-8,1.05-10.72,2.86s-5.77,4.11-8.34,4.29a11.85,11.85,0,0,0-5.94,5v0.44A11.67,11.67,0,0,1,4.24,17.77Z" transform="translate(0 -3.3)"/><path class="cls-5" d="M4.34,17.81a16,16,0,0,1,1.78-.88c2.56-.24,5.67-2.46,8.26-4.37S19.23,9.26,25,9.71V9.65c-5.79-.5-8,1-10.65,2.84s-5.72,4.11-8.29,4.3a17.78,17.78,0,0,0-1.78.84A11.38,11.38,0,0,0,0,21.84v0.42A11.7,11.7,0,0,1,4.34,17.81Z" transform="translate(0 -3.3)"/><path class="cls-5" d="M4.45,17.86A17.18,17.18,0,0,1,6.25,17c2.56-.24,5.64-2.49,8.21-4.37S19.28,9.38,25,9.78V9.72c-5.73-.45-7.93,1-10.57,2.81s-5.67,4.11-8.25,4.3A12.16,12.16,0,0,0,0,21.92v0.45A11.78,11.78,0,0,1,4.45,17.86Z" transform="translate(0 -3.3)"/><path class="cls-5" d="M4.56,17.9A18,18,0,0,1,6.37,17c2.56-.25,5.61-2.52,8.16-4.37S19.33,9.5,25,9.84V9.79c-5.68-.39-7.88,1-10.5,2.79s-5.62,4.11-8.2,4.31A12.35,12.35,0,0,0,0,22v0.44A11.89,11.89,0,0,1,4.56,17.9Z" transform="translate(0 -3.3)"/><path class="cls-5" d="M4.67,17.94a18.94,18.94,0,0,1,1.82-.87c2.56-.25,5.57-2.54,8.11-4.37S19.38,9.62,25,9.91V9.86c-5.63-.34-7.82,1-10.43,2.77S9,16.74,6.42,16.94A12.43,12.43,0,0,0,0,22.14v0.45A11.92,11.92,0,0,1,4.67,17.94Z" transform="translate(0 -3.3)"/><path class="cls-5" d="M25,10.23v0c-6.29.15-8.65,1.2-11.35,3.22C16.38,11.84,19,10.92,25,10.23Z" transform="translate(0 -3.3)"/><path class="cls-5" d="M0,22.72C1.19,21.42,2.62,20,4.24,18.34A11.9,11.9,0,0,0,0,22.67v0Z" transform="translate(0 -3.3)"/><path class="cls-5" d="M4.8,17.75l-0.56.58c0.2-.12.38-0.26,0.59-0.37,2.41,0.18,5.71-2.67,8.83-4.55C10.48,15,7.48,16.38,4.8,17.75Z" transform="translate(0 -3.3)"/><path class="cls-5" d="M4.89,18c0.59-.31,1.2-0.6,1.84-0.87,2.56-.26,5.5-2.59,8-4.36S19.48,9.85,25,10V10c-5.53-.23-7.72,1-10.28,2.74S9.25,16.81,6.67,17A12.74,12.74,0,0,0,0,22.36V22.8A12.14,12.14,0,0,1,4.89,18Z" transform="translate(0 -3.3)"/><path class="cls-5" d="M5,18.07c0.59-.31,1.21-0.59,1.86-0.87,2.56-.27,5.47-2.61,8-4.36S19.53,10,25,10.11V10.06c-5.48-.18-7.67,1-10.21,2.72s-5.42,4.08-8,4.3A12.89,12.89,0,0,0,0,22.46V22.9A12.26,12.26,0,0,1,5,18.07Z" transform="translate(0 -3.3)"/><path class="cls-5" d="M5.1,18.11C5.7,17.8,6.32,17.52,7,17.25c2.56-.28,5.44-2.63,7.92-4.35S19.58,10.09,25,10.18V10.13c-5.44-.13-7.62,1-10.14,2.7s-5.38,4.06-8,4.3A13.11,13.11,0,0,0,0,22.58V23A12.37,12.37,0,0,1,5.1,18.11Z" transform="translate(0 -3.3)"/><path class="cls-5" d="M0,23.16a13,13,0,0,1,3.2-3.72A11.47,11.47,0,0,0,0,22.58v0.58Z" transform="translate(0 -3.3)"/><path class="cls-5" d="M25,10.43v0c-4.48.06-6.68,0.23-8.82,1.74C18.28,10.91,20.59,10.76,25,10.43Z" transform="translate(0 -3.3)"/><path class="cls-5" d="M7.37,16.95c-0.59.37-1.17,0.71-1.74,1,0.48-.24.95-0.48,1.46-0.69,3-.63,6.18-3.08,9.09-5.14C13.12,13.93,10.35,16,7.37,16.95Z" transform="translate(0 -3.3)"/><path class="cls-5" d="M5.32,18.2c0.6-.31,1.23-0.59,1.89-0.86C9.76,17,12.57,14.66,15,13s4.65-2.68,10-2.68v0c-5.34,0-7.51,1-10,2.66s-5.28,4-7.86,4.29c-0.66.26-1.29,0.53-1.89,0.83A12.23,12.23,0,0,0,0,22.81V23.2A12.52,12.52,0,0,1,5.32,18.2Z" transform="translate(0 -3.3)"/><path class="cls-5" d="M25,10.61V10.47c-5.79.13-7.91,0.9-10.65,3.16C16.94,12.19,19.55,11.65,25,10.61Z" transform="translate(0 -3.3)"/><path class="cls-5" d="M0,23.29C1.18,22,2.62,20.63,4.21,18.93A12.32,12.32,0,0,0,0,23.25v0Z" transform="translate(0 -3.3)"/><path class="cls-5" d="M4.74,18.36l-0.54.57c0.42-.26.82-0.51,1.26-0.72,0.6-.29,1.21-0.56,1.85-0.84a20.56,20.56,0,0,0,7-3.75C10.84,15.31,7.64,16.8,4.74,18.36Z" transform="translate(0 -3.3)"/><path class="cls-5" d="M5.58,18.25c0.6-.3,1.22-0.56,1.86-0.84,2.55-.32,5.3-2.7,7.73-4.32s4.61-2.55,9.83-2.65v0c-5.24.06-7.41,1-9.85,2.63S10,17,7.39,17.3A13.64,13.64,0,0,0,0,22.87v0.44A12.38,12.38,0,0,1,5.58,18.25Z" transform="translate(0 -3.3)"/><path class="cls-5" d="M25,10.48h0a19,19,0,0,0-4.79.47A26.22,26.22,0,0,1,25,10.48Z" transform="translate(0 -3.3)"/><path class="cls-5" d="M0,23.4a12.52,12.52,0,0,1,5.68-5.12c0.6-.29,1.23-0.56,1.88-0.83,4.9-1.08,6.85-5.12,12.66-6.52a13.46,13.46,0,0,0-5,2.15c-2.42,1.6-5.15,4-7.71,4.27-0.64.26-1.27,0.52-1.87,0.8A12.26,12.26,0,0,0,0,23V23.4Z" transform="translate(0 -3.3)"/><path class="cls-5" d="M5.79,18.33C6.4,18,7,17.77,7.67,17.49c6-1.39,7.56-7.07,17.33-7v0c-9.79-.16-11.33,5.6-17.38,6.91-0.65.26-1.28,0.53-1.89,0.8A12.4,12.4,0,0,0,0,23.13V23.5A12.63,12.63,0,0,1,5.79,18.33Z" transform="translate(0 -3.3)"/><path class="cls-5" d="M0,23.67A13.29,13.29,0,0,1,3.08,20.1a11.42,11.42,0,0,0-3.08,3v0.56Z" transform="translate(0 -3.3)"/><path class="cls-5" d="M25,10.81v0c-4.46.29-6.61,0.4-8.76,1.92C18.34,11.48,20.61,11.39,25,10.81Z" transform="translate(0 -3.3)"/><path class="cls-5" d="M7.64,17.39c-0.49.31-1,.59-1.44,0.86,0.52-.24,1-0.49,1.59-0.72,2.87-.69,5.73-3,8.45-4.83C13.24,14.36,10.56,16.42,7.64,17.39Z" transform="translate(0 -3.3)"/><path class="cls-5" d="M19.16,11.43c1.48-.43,3.17-0.34,5.69-0.57C22.29,11,20.63,10.91,19.16,11.43Z" transform="translate(0 -3.3)"/><path class="cls-5" d="M0,23.69a12.86,12.86,0,0,1,6-5.28c0.61-.29,1.25-0.56,1.9-0.84l1.16-.48a11,11,0,0,1-1.2.38A14.59,14.59,0,0,0,0,23.31v0.38Z" transform="translate(0 -3.3)"/><path class="cls-5" d="M19.16,11.43C16.09,12.25,14,14.54,11.4,16a45.15,45.15,0,0,0,4.37-2.79A14.15,14.15,0,0,1,19.16,11.43Z" transform="translate(0 -3.3)"/><path class="cls-5" d="M19.22,11.51a37.89,37.89,0,0,1,5.63-.58C22.32,11.08,20.68,11,19.22,11.51Z" transform="translate(0 -3.3)"/><path class="cls-5" d="M0,23.84a12.63,12.63,0,0,1,6.15-5.41C6.77,18.14,7.4,17.87,8,17.61l1.21-.51A10.11,10.11,0,0,1,8,17.5c-2.78,1.18-5.5,2.07-8,6v0.34Z" transform="translate(0 -3.3)"/><path class="cls-5" d="M19.22,11.51c-3.07.81-5.13,3.08-7.75,4.51a47.28,47.28,0,0,0,4.39-2.8A13.85,13.85,0,0,1,19.22,11.51Z" transform="translate(0 -3.3)"/><path class="cls-5" d="M19.27,11.59c-3.07.79-5.12,3-7.74,4.47a52,52,0,0,0,4.41-2.81A13.67,13.67,0,0,1,19.27,11.59Z" transform="translate(0 -3.3)"/><path class="cls-5" d="M19.27,11.59A40.46,40.46,0,0,1,24.85,11C22.35,11.16,20.72,11.1,19.27,11.59Z" transform="translate(0 -3.3)"/><path class="cls-5" d="M0,23.94a12.82,12.82,0,0,1,6.25-5.48c0.63-.29,1.26-0.55,1.88-0.82,0.42-.17.84-0.34,1.26-0.53a10.31,10.31,0,0,1-1.3.43c-2.81,1.19-5.58,2.07-8.09,6v0.35Z" transform="translate(0 -3.3)"/><path class="cls-5" d="M19.33,11.67a43.62,43.62,0,0,1,5.54-.61C22.39,11.25,20.77,11.19,19.33,11.67Z" transform="translate(0 -3.3)"/><path class="cls-5" d="M19.33,11.67c-3.06.78-5.1,3-7.71,4.43,1.51-.82,2.92-1.81,4.41-2.81A13.55,13.55,0,0,1,19.33,11.67Z" transform="translate(0 -3.3)"/><path class="cls-5" d="M0,24A12.94,12.94,0,0,1,6.36,18.5c0.63-.29,1.26-0.56,1.89-0.83,0.43-.17.87-0.35,1.29-0.55a10.79,10.79,0,0,1-1.34.46C5.35,18.8,2.54,19.67,0,23.69V24Z" transform="translate(0 -3.3)"/><path class="cls-6" d="M1.06,18.54a10.05,10.05,0,0,1,1.36-2C5,13.72,8.5,14.71,12.06,12.53S17.57,7,25,8.95V8.88c-7.45-2-9.48,1.37-13,3.58s-7.11,1.1-9.69,3.92A15,15,0,0,0,0,20.51V21A22.77,22.77,0,0,1,1.06,18.54Z" transform="translate(0 -3.3)"/><path class="cls-6" d="M0,21a22.71,22.71,0,0,1,1.11-2.53C3.28,14.29,5.78,15,10,13.51c1.71-.46,3.35-1.81,5.1-3.12a26,26,0,0,1-4,2.51C7.44,14.54,4,14.05,2,16.84a13.92,13.92,0,0,0-2,3.65V21Z" transform="translate(0 -3.3)"/><path class="cls-6" d="M24.39,9.18c-4.8-1.09-7.18-.45-9.31,1.22C17.21,8.87,19.62,8.3,24.39,9.18Z" transform="translate(0 -3.3)"/><path class="cls-6" d="M12.84,11.92C15,10.74,16.8,9.17,20,8.79,16.58,9.11,14.79,10.62,12.84,11.92Z" transform="translate(0 -3.3)"/><path class="cls-6" d="M0,21a21.74,21.74,0,0,1,1.19-2.63A9.4,9.4,0,0,1,2.6,16.47c1.69-1.28,5.24-1.92,8.2-3.42C7.32,14.55,4,14.19,2.06,16.84A13.59,13.59,0,0,0,0,20.51V21Z" transform="translate(0 -3.3)"/><path class="cls-6" d="M24.3,9a15.86,15.86,0,0,0-3.74-.22A19.17,19.17,0,0,1,24.3,9Z" transform="translate(0 -3.3)"/><path class="cls-6" d="M1.29,18.17a8.92,8.92,0,0,1,1.4-1.76c2-1.37,6.45-2.05,9.57-4.15,3.39-1.64,5.6-4.53,12.74-3.13V9.08c-7.17-1.47-9.38,1.49-12.78,3.12-3.14,2.1-7.61,2.69-9.62,4A13.27,13.27,0,0,0,0,20.43V20.9A19.47,19.47,0,0,1,1.29,18.17Z" transform="translate(0 -3.3)"/><path class="cls-6" d="M1.36,18.07a8.53,8.53,0,0,1,1.42-1.72c2-1.26,6.45-2,9.55-4.08C15.7,10.63,17.9,7.8,25,9.17V9.11c-7.12-1.43-9.33,1.47-12.71,3.1-3.12,2.09-7.56,2.75-9.6,4A12.73,12.73,0,0,0,0,20.4v0.47A18.83,18.83,0,0,1,1.36,18.07Z" transform="translate(0 -3.3)"/><path class="cls-6" d="M1.4,18a8.27,8.27,0,0,1,1.46-1.7c2.08-1.16,6.45-2,9.54-4C15.75,10.64,18,7.87,25,9.21V9.15c-7.07-1.4-9.28,1.43-12.63,3.07-3.1,2.07-7.5,2.79-9.58,3.9A12.67,12.67,0,0,0,0,20.37v0.49A19,19,0,0,1,1.4,18Z" transform="translate(0 -3.3)"/><path class="cls-6" d="M1.47,17.92A7.91,7.91,0,0,1,3,16.26c2.12-1.05,6.44-1.91,9.52-4C15.79,10.65,18,7.94,25,9.25V9.19c-7-1.37-9.23,1.4-12.56,3C9.36,14.28,5,15.07,2.88,16.07A12.22,12.22,0,0,0,0,20.33v0.5A18.21,18.21,0,0,1,1.47,17.92Z" transform="translate(0 -3.3)"/><path class="cls-6" d="M1.58,17.76a7.86,7.86,0,0,1,1.48-1.54c2.15-1,6.44-1.88,9.5-3.91C15.84,10.65,18,8,25,9.28V9.23c-7-1.34-9.18,1.37-12.49,3C9.44,14.28,5.13,15.12,3,16a11.49,11.49,0,0,0-3,4.22v0.49A16.66,16.66,0,0,1,1.58,17.76Z" transform="translate(0 -3.3)"/><path class="cls-6" d="M1.64,17.68a7.37,7.37,0,0,1,1.5-1.51c2.19-.87,6.44-1.84,9.48-3.86,3.27-1.65,5.47-4.24,12.38-3V9.27c-6.93-1.3-9.13,1.34-12.41,3-3,2-7.33,2.93-9.52,3.74A11.22,11.22,0,0,0,0,20.23v0.48A15.81,15.81,0,0,1,1.64,17.68Z" transform="translate(0 -3.3)"/><path class="cls-6" d="M1.71,17.6a7.46,7.46,0,0,1,1.53-1.47c2.23-.78,6.43-1.8,9.46-3.81,3.25-1.65,5.44-4.17,12.31-3V9.3c-6.89-1.27-9.08,1.31-12.34,3-3,2-7.27,3-9.5,3.7A10.89,10.89,0,0,0,0,20.19v0.47A15.08,15.08,0,0,1,1.71,17.6Z" transform="translate(0 -3.3)"/><path class="cls-6" d="M19.35,9.3c-3.49.6-5.58,2.4-7.76,3.74q0.61-.33,1.18-0.71C14.87,11.25,16.54,9.83,19.35,9.3Z" transform="translate(0 -3.3)"/><path class="cls-6" d="M0,20.63a14.74,14.74,0,0,1,1.78-3.12A7.27,7.27,0,0,1,3.33,16.1c1.35-.41,3.37-1,5.42-1.77a7.94,7.94,0,0,1-2.14.27c-2.83.89-4.89,1.62-6.61,5.32v0.71Z" transform="translate(0 -3.3)"/><path class="cls-6" d="M0,20.52a13.11,13.11,0,0,1,1.9-3.13,7.06,7.06,0,0,1,1.52-1.32A50.72,50.72,0,0,0,8.8,14.36a8,8,0,0,1-2.14.28c-2.85.89-4.92,1.6-6.66,5.3v0.58Z" transform="translate(0 -3.3)"/><path class="cls-6" d="M19.35,9.35c-3.47.6-5.54,2.37-7.71,3.7,0.41-.22.81-0.46,1.2-0.71C14.92,11.26,16.58,9.88,19.35,9.35Z" transform="translate(0 -3.3)"/><path class="cls-6" d="M2,17.31A6.79,6.79,0,0,1,3.52,16a31.21,31.21,0,0,0,9.39-3.68c3.18-1.65,5.37-4,12.09-2.87V9.42c-6.74-1.17-8.94,1.22-12.12,2.87a29.37,29.37,0,0,1-9.43,3.57A9.79,9.79,0,0,0,0,20.08v0.41A12.73,12.73,0,0,1,2,17.31Z" transform="translate(0 -3.3)"/><path class="cls-6" d="M2,17.27A7,7,0,0,1,3.61,16,29,29,0,0,0,13,12.35c3.16-1.65,5.35-3.93,12-2.85V9.45c-6.7-1.14-8.89,1.19-12.06,2.84a27.56,27.56,0,0,1-9.4,3.54A9.48,9.48,0,0,0,0,20v0.42A12.73,12.73,0,0,1,2,17.27Z" transform="translate(0 -3.3)"/><path class="cls-6" d="M2.09,17.2A7.08,7.08,0,0,1,3.71,16,27.18,27.18,0,0,0,13,12.36c3.13-1.65,5.32-3.86,12-2.82V9.49c-6.65-1.1-8.84,1.16-12,2.81A25.87,25.87,0,0,1,3.64,15.8,9.28,9.28,0,0,0,0,20v0.43A12.38,12.38,0,0,1,2.09,17.2Z" transform="translate(0 -3.3)"/><path class="cls-6" d="M2.16,17.14a6.87,6.87,0,0,1,1.64-1.2,25.85,25.85,0,0,0,9.31-3.58c3.11-1.65,5.3-3.8,11.88-2.78V9.53c-6.6-1.07-8.79,1.13-11.91,2.78a24.6,24.6,0,0,1-9.35,3.48A9.07,9.07,0,0,0,0,19.94v0.43A12,12,0,0,1,2.16,17.14Z" transform="translate(0 -3.3)"/><path class="cls-6" d="M12.22,12.86A21.55,21.55,0,0,1,8.7,14.52a12.79,12.79,0,0,0,3.93-1.86Z" transform="translate(0 -3.3)"/><path class="cls-6" d="M25,9.65V9.58c-6.54-1-9.51,1.26-12.37,3.08C15.85,11.07,18.18,8.78,25,9.65Z" transform="translate(0 -3.3)"/><path class="cls-6" d="M0,20.28A11,11,0,0,1,2.26,17a53.13,53.13,0,0,1,6.44-2.5,8.6,8.6,0,0,1-1.76.23C4,15.6,1.83,16.11,0,19.78v0.49Z" transform="translate(0 -3.3)"/><path class="cls-6" d="M12.29,12.88a21.62,21.62,0,0,1-3.5,1.66,13,13,0,0,0,3.86-1.83Z" transform="translate(0 -3.3)"/><path class="cls-6" d="M0,19.79v0.47A10.78,10.78,0,0,1,2.35,17c1.49-.8,4-1.5,6.43-2.44A8.49,8.49,0,0,1,7,14.78C4,15.65,1.85,16.12,0,19.79Z" transform="translate(0 -3.3)"/><path class="cls-6" d="M25,9.69V9.62c-6.54-.93-9.5,1.27-12.36,3.09C15.87,11.12,18.18,8.84,25,9.69Z" transform="translate(0 -3.3)"/><path class="cls-6" d="M25,9.93V9.82c-5.64-.71-7.8-0.21-10.24,1.78C17.18,10.12,19.7,10,25,9.93Z" transform="translate(0 -3.3)"/><path class="cls-6" d="M4.95,15.32c-0.39.23-.76,0.46-1.12,0.71,2.18-1.23,4.92-.9,7.86-2.51a18.48,18.48,0,0,0,3.07-1.91A28.93,28.93,0,0,1,4.95,15.32Z" transform="translate(0 -3.3)"/><path class="cls-6" d="M2.51,16.85a7.11,7.11,0,0,1,1.68-1c2.52-.1,6.34-1.62,9.21-3.45,3-1.63,5.21-3.54,11.61-2.67v0c-6.42-.93-8.6,1-11.63,2.65-2.87,1.84-6.71,3.32-9.24,3.37a8.31,8.31,0,0,0-4.12,4v0.46A10,10,0,0,1,2.51,16.85Z" transform="translate(0 -3.3)"/><path class="cls-6" d="M2.58,16.8a7.06,7.06,0,0,1,1.7-1c2.55,0,6.33-1.61,9.17-3.43,3-1.63,5.19-3.48,11.54-2.64v0c-6.37-.89-8.55,1-11.57,2.62-2.86,1.83-6.66,3.34-9.22,3.34a8.24,8.24,0,0,0-4.22,4v0.46A9.8,9.8,0,0,1,2.58,16.8Z" transform="translate(0 -3.3)"/><path class="cls-6" d="M2.66,16.74a7.49,7.49,0,0,1,1.72-.93c2.57,0,6.31-1.6,9.15-3.4C16.51,10.79,18.69,9,25,9.81v0c-6.32-.86-8.51,1-11.5,2.59-2.84,1.81-6.6,3.37-9.19,3.32A8.11,8.11,0,0,0,0,19.7v0.44A9.58,9.58,0,0,1,2.66,16.74Z" transform="translate(0 -3.3)"/><path class="cls-6" d="M2.73,16.7a7.56,7.56,0,0,1,1.75-.9c2.6,0,6.3-1.6,9.12-3.38,3-1.62,5.14-3.35,11.4-2.57v0c-6.28-.83-8.46.95-11.43,2.56-2.83,1.79-6.55,3.39-9.16,3.3a8,8,0,0,0-4.41,4V20.1A9.32,9.32,0,0,1,2.73,16.7Z" transform="translate(0 -3.3)"/><path class="cls-6" d="M2.86,16.61a8.33,8.33,0,0,1,1.71-.83c2.62,0.08,6.29-1.59,9.09-3.35,2.94-1.6,5.12-3.29,11.33-2.54v0c-6.23-.79-8.41.93-11.36,2.53-2.81,1.77-6.5,3.41-9.13,3.27A7.79,7.79,0,0,0,0,19.55V20A8.71,8.71,0,0,1,2.86,16.61Z" transform="translate(0 -3.3)"/><path class="cls-6" d="M25,10.17V10.06c-5.79-.58-7.89,0-10.39,2C17.08,10.58,19.62,10.44,25,10.17Z" transform="translate(0 -3.3)"/><path class="cls-6" d="M4.57,15.59l-0.84.57C6,14.94,8.92,15.32,12,13.6A18.72,18.72,0,0,0,14.61,12,35.65,35.65,0,0,1,4.57,15.59Z" transform="translate(0 -3.3)"/><path class="cls-6" d="M0.19,19.56a14.25,14.25,0,0,1,3.53-3.41c-0.27.13-.54,0.27-0.81,0.43A8.73,8.73,0,0,0,.19,19.56Z" transform="translate(0 -3.3)"/><path class="cls-6" d="M3,16.53a8.57,8.57,0,0,1,1.77-.77c2.66,0.16,6.25-1.59,9-3.31S18.88,9.29,25,10v0c-6.14-.72-8.32.88-11.23,2.47s-6.39,3.45-9.06,3.24A7.84,7.84,0,0,0,0,19.51v0.34A8.59,8.59,0,0,1,3,16.53Z" transform="translate(0 -3.3)"/><path class="cls-6" d="M3.08,16.49a8.84,8.84,0,0,1,1.79-.75c2.68,0.19,6.23-1.59,9-3.29S18.93,9.36,25,10v0c-6.09-.68-8.27.86-11.16,2.44s-6.34,3.46-9,3.23A7.8,7.8,0,0,0,0,19.47v0.34A8.42,8.42,0,0,1,3.08,16.49Z" transform="translate(0 -3.3)"/><path class="cls-6" d="M3.16,16.45A8.71,8.71,0,0,1,5,15.74c2.7,0.22,6.21-1.6,9-3.28S19,9.43,25,10v0c-6-.65-8.23.84-11.09,2.41s-6.29,3.48-9,3.21A7.81,7.81,0,0,0,0,19.43v0.33A8.28,8.28,0,0,1,3.16,16.45Z" transform="translate(0 -3.3)"/><path class="cls-6" d="M3.24,16.42a9,9,0,0,1,1.83-.69C7.78,16,11.26,14.13,14,12.47s5-3,11-2.39v0c-6-.61-8.18.81-11,2.38S7.74,15.9,5,15.61a7.75,7.75,0,0,0-5,3.77v0.35A8.15,8.15,0,0,1,3.24,16.42Z" transform="translate(0 -3.3)"/><path class="cls-6" d="M3.32,16.38a9.72,9.72,0,0,1,1.85-.67c2.73,0.27,6.17-1.6,8.9-3.24s5-2.9,10.93-2.36v0c-5.95-.58-8.13.8-11,2.35s-6.19,3.5-8.93,3.18A7.77,7.77,0,0,0,0,19.35v0.33A8,8,0,0,1,3.32,16.38Z" transform="translate(0 -3.3)"/><path class="cls-6" d="M25,10.45h0c-6.32-.12-8.72.56-11.52,2.41C16.27,11.3,18.87,10.72,25,10.45Z" transform="translate(0 -3.3)"/><path class="cls-6" d="M0,19.69a15,15,0,0,1,3.48-3.35l-0.06,0A8,8,0,0,0,0,19.64v0.05Z" transform="translate(0 -3.3)"/><path class="cls-6" d="M4.29,15.79C4,16,3.74,16.15,3.48,16.34c2.48,0.08,6.58-1.6,10-3.5A42.65,42.65,0,0,1,4.29,15.79Z" transform="translate(0 -3.3)"/><path class="cls-6" d="M25,10.48h0c-6.29-.1-8.68.55-11.46,2.39C16.32,11.33,18.9,10.78,25,10.48Z" transform="translate(0 -3.3)"/><path class="cls-6" d="M4.33,15.8l-0.77.52c2.49,0.13,6.57-1.56,10-3.46A41.15,41.15,0,0,1,4.33,15.8Z" transform="translate(0 -3.3)"/><path class="cls-6" d="M0,19.67a15.09,15.09,0,0,1,3.56-3.35h0A7.78,7.78,0,0,0,0,19.62v0Z" transform="translate(0 -3.3)"/><path class="cls-6" d="M3.6,16.26a11.46,11.46,0,0,1,1.87-.57c2.77,0.33,6.11-1.62,8.79-3.2S19.21,9.79,25,10.23v0c-5.81-.48-8,0.74-10.76,2.26S8.2,16,5.42,15.59A7.7,7.7,0,0,0,0,19.18v0.3A7.49,7.49,0,0,1,3.6,16.26Z" transform="translate(0 -3.3)"/><path class="cls-6" d="M3.68,16.23a12.14,12.14,0,0,1,1.88-.54c2.79,0.35,6.09-1.63,8.76-3.18S19.25,9.86,25,10.27v0c-5.76-.45-7.95.72-10.7,2.23s-6,3.52-8.79,3.13a12.2,12.2,0,0,0-1.88.51,7.21,7.21,0,0,0-3.64,3v0.31A7.42,7.42,0,0,1,3.68,16.23Z" transform="translate(0 -3.3)"/><path class="cls-6" d="M3.76,16.21a12.74,12.74,0,0,1,1.91-.52c2.8,0.36,6.07-1.64,8.72-3.17S19.3,9.93,25,10.31v0c-5.72-.41-7.9.7-10.63,2.2S8.43,16,5.62,15.58A7.82,7.82,0,0,0,0,19.07v0.32A7.35,7.35,0,0,1,3.76,16.21Z" transform="translate(0 -3.3)"/><path class="cls-6" d="M3.84,16.18a14.1,14.1,0,0,1,1.92-.5c2.81,0.37,6-1.64,8.69-3.16S19.34,10,25,10.35v0c-5.67-.38-7.86.68-10.57,2.16S8.54,16,5.72,15.58A7.88,7.88,0,0,0,0,19v0.31A7.29,7.29,0,0,1,3.84,16.18Z" transform="translate(0 -3.3)"/><path class="cls-6" d="M3.93,16.16a14.26,14.26,0,0,1,1.94-.48c2.82,0.38,6-1.66,8.65-3.15S19.39,10.07,25,10.39v0c-5.62-.35-7.81.66-10.5,2.14S8.65,16,5.82,15.58A8,8,0,0,0,0,19V19.3A7.23,7.23,0,0,1,3.93,16.16Z" transform="translate(0 -3.3)"/><path class="cls-6" d="M25,10.69v0c-6.33.06-8.64,0.58-11.46,2.45C16.35,11.62,18.93,11.23,25,10.69Z" transform="translate(0 -3.3)"/><path class="cls-6" d="M4.11,15.94c-0.27.16-.53,0.34-0.78,0.51,0.25-.11.47-0.24,0.73-0.33,2.49,0.35,6.29-1.21,9.48-3A45.36,45.36,0,0,1,4.11,15.94Z" transform="translate(0 -3.3)"/><path class="cls-6" d="M0,19.43a15.12,15.12,0,0,1,3.33-3A7.46,7.46,0,0,0,0,19.24v0.2Z" transform="translate(0 -3.3)"/><path class="cls-6" d="M4.09,16.12a17.55,17.55,0,0,1,2-.44c2.83,0.39,6-1.68,8.58-3.12S19.48,10.21,25,10.47v0c-5.53-.29-7.72.63-10.37,2.08S8.87,16,6,15.58a8.11,8.11,0,0,0-6,3.33v0.3A7.18,7.18,0,0,1,4.09,16.12Z" transform="translate(0 -3.3)"/><path class="cls-6" d="M4.17,16.1a19.39,19.39,0,0,1,2-.42C9,16.07,12.12,14,14.71,12.56S19.53,10.28,25,10.5v0c-5.48-.26-7.67.61-10.31,2S9,16,6.12,15.58A8.21,8.21,0,0,0,0,18.86v0.29A7.12,7.12,0,0,1,4.17,16.1Z" transform="translate(0 -3.3)"/><path class="cls-6" d="M4.25,16.07a20.52,20.52,0,0,1,2-.4c2.85,0.4,5.92-1.7,8.5-3.1s4.8-2.22,10.22-2v0c-5.44-.22-7.62.6-10.24,2S9.09,16,6.23,15.58A8.27,8.27,0,0,0,0,18.8v0.3A7.16,7.16,0,0,1,4.25,16.07Z" transform="translate(0 -3.3)"/><path class="cls-6" d="M25,10.79h0c-4.43,0-6.62-.21-8.82,1.09C18.33,10.79,20.61,11,25,10.79Z" transform="translate(0 -3.3)"/><path class="cls-6" d="M6.75,15.45C6,15.66,5.25,15.84,4.55,16c0.58-.14,1.18-0.26,1.82-0.37,3.4,0.08,6.79-2,9.81-3.8C13,13.43,10,15.29,6.75,15.45Z" transform="translate(0 -3.3)"/><path class="cls-6" d="M4.42,16c0.65-.16,1.34-0.26,2.06-0.38,2.86,0.4,5.87-1.72,8.43-3.08s4.77-2.11,10.1-2v0c-5.35-.17-7.53.57-10.12,2S9.3,16,6.43,15.58c-2.62.28-4.74,1-6.43,3.14V19A7.08,7.08,0,0,1,4.42,16Z" transform="translate(0 -3.3)"/><path class="cls-6" d="M0,19.15a14.79,14.79,0,0,1,3.12-2.66A7,7,0,0,0,0,18.92v0.23Z" transform="translate(0 -3.3)"/><path class="cls-6" d="M25,10.89V10.75c-5.83,0-8,.27-10.84,2.36C16.84,11.72,19.37,11.7,25,10.89Z" transform="translate(0 -3.3)"/><path class="cls-6" d="M3.86,16l-0.73.46A10.36,10.36,0,0,1,4.55,16c0.64-.14,1.32-0.24,2-0.34a14.92,14.92,0,0,0,7.58-2.56C10.64,14.75,6.92,15.37,3.86,16Z" transform="translate(0 -3.3)"/><path class="cls-6" d="M4.64,16c0.65-.13,1.33-0.23,2-0.33,2.87,0.39,5.82-1.75,8.35-3.06s4.73-2,10-1.91v0c-5.25-.11-7.44.54-10,1.9s-5.5,3.45-8.38,3c-2.7.24-4.91,0.85-6.63,3v0.31A7,7,0,0,1,4.64,16Z" transform="translate(0 -3.3)"/><path class="cls-6" d="M4.72,16c0.65-.13,1.34-0.22,2.05-0.32,2.87,0.38,5.79-1.75,8.31-3S19.8,10.69,25,10.74v0c-5.21-.09-7.4.53-9.93,1.87s-5.46,3.43-8.33,3c-2.75.23-5,.8-6.74,2.9V18.8A7,7,0,0,1,4.72,16Z" transform="translate(0 -3.3)"/><path class="cls-6" d="M4.81,16c0.66-.12,1.35-0.21,2.07-0.31,6.66-.19,8.33-5.63,18.12-5v0c-9.82-.7-11.48,4.82-18.16,4.93-0.72.09-1.41,0.17-2.07,0.28A7,7,0,0,0,0,18.5v0.25A7.06,7.06,0,0,1,4.81,16Z" transform="translate(0 -3.3)"/><path class="cls-6" d="M25,11h0c-4.36.12-6.52-.15-8.71,1.11C18.42,11.06,20.68,11.35,25,11Z" transform="translate(0 -3.3)"/><path class="cls-6" d="M6.88,15.53c-0.58.15-1.15,0.27-1.7,0.4,0.58-.1,1.17-0.18,1.8-0.26,3.32,0,6.43-2,9.31-3.57C13.16,13.57,10.16,15.41,6.88,15.53Z" transform="translate(0 -3.3)"/><path class="cls-6" d="M19,11.19c-2.92.45-4.94,2.39-7.55,3.44a30.8,30.8,0,0,0,4.07-2.06A13.07,13.07,0,0,1,19,11.19Z" transform="translate(0 -3.3)"/><path class="cls-6" d="M25,11h0c-2.69.09-4.4-.21-6,0.18C20.6,10.88,22.34,11.19,25,11Z" transform="translate(0 -3.3)"/><path class="cls-6" d="M0,18.65A7.15,7.15,0,0,1,5,16c0.67-.11,1.38-0.19,2.11-0.29L8.2,15.5A10.44,10.44,0,0,1,7,15.59c-2.88.23-5.23,0.69-7,2.76v0.3Z" transform="translate(0 -3.3)"/><path class="cls-6" d="M19.1,11.23c-2.9.43-4.92,2.33-7.5,3.38a33.54,33.54,0,0,0,4.06-2A12.65,12.65,0,0,1,19.1,11.23Z" transform="translate(0 -3.3)"/><path class="cls-6" d="M25,11h0c-2.66.1-4.36-.19-5.9,0.19C20.64,10.93,22.37,11.24,25,11Z" transform="translate(0 -3.3)"/><path class="cls-6" d="M0,18.62a6.92,6.92,0,0,1,5.1-2.69c0.68-.1,1.38-0.18,2.08-0.27,0.37,0,.75-0.09,1.12-0.16a10.2,10.2,0,0,1-1.16.09C4.51,15.9,2.09,15.86,0,18.4v0.22Z" transform="translate(0 -3.3)"/><path class="cls-6" d="M19.15,11.27c-2.89.41-4.9,2.28-7.46,3.33a36.39,36.39,0,0,0,4-2A12.48,12.48,0,0,1,19.15,11.27Z" transform="translate(0 -3.3)"/><path class="cls-6" d="M25,11.09h0c-2.63.11-4.32-.18-5.85,0.18C20.68,11,22.4,11.28,25,11.09Z" transform="translate(0 -3.3)"/><path class="cls-6" d="M0,18.58a7,7,0,0,1,5.19-2.66c0.69-.1,1.39-0.17,2.09-0.26,0.44-.05.88-0.11,1.32-0.19a12.69,12.69,0,0,1-1.36.12C4.57,15.9,2.12,15.82,0,18.35v0.23Z" transform="translate(0 -3.3)"/><path class="cls-6" d="M25,11.12h0c-2.6.13-4.28-.16-5.79,0.19C20.72,11,22.43,11.33,25,11.12Z" transform="translate(0 -3.3)"/><path class="cls-6" d="M19.21,11.31c-3.13.43-5.26,2.55-8.11,3.55a31.61,31.61,0,0,0,4.73-2.3A12.29,12.29,0,0,1,19.21,11.31Z" transform="translate(0 -3.3)"/><path class="cls-6" d="M0,18.53a7,7,0,0,1,5.27-2.62l2.11-.25C7.91,15.6,8.45,15.53,9,15.43a11.74,11.74,0,0,1-1.62.16c-2.7.31-5.2,0.19-7.34,2.7v0.24Z" transform="translate(0 -3.3)"/><path class="cls-7" d="M0,8.19c1-.51,2.4.67,3.95,1.46,2.7,1.87,5.93,2.53,8,1.69,3.24-1.27,6.17-1,9.58.88-3.33-1.92-6-2.48-9.69-1l-0.12,0c-2,.75-5.12.17-7.74-1.73C2.43,8.73,1.06,7.5,0,8.07V8.19Z" transform="translate(0 -3.3)"/><path class="cls-7" d="M4.27,9.85a9,9,0,0,0,7.86,1.43c4.2-2.15,7.75.48,12.87,2.29V13.44C19.87,11.7,16.32,9,12.13,11.2c-2,.78-5.2.46-7.93-1.51C2.56,8.83,1.09,7.41,0,7.92V8.3C1.09,7.61,2.6,9,4.27,9.85Z" transform="translate(0 -3.3)"/><path class="cls-7" d="M4.13,9.78c2.6,1.69,5.68,2.35,7.75,1.55,4.25-2.15,7.7.23,13.13,2.24V13.44c-5.45-1.93-8.89-4.39-13.13-2.19-2.07.83-5.2,0.15-7.82-1.64C2.44,8.77,1,7.52,0,8.07V8.45C1,7.73,2.48,9,4.13,9.78Z" transform="translate(0 -3.3)"/><path class="cls-7" d="M4.51,10a9,9,0,0,0,7.61,1.24c4.13-2.12,7.49.48,12.88,2.35V13.48c-5.41-1.8-8.76-4.48-12.89-2.31A8.81,8.81,0,0,1,4.43,9.85C2.68,9,1.09,7.44,0,8.19v0.4C1.09,7.63,2.72,9.14,4.51,10Z" transform="translate(0 -3.3)"/><path class="cls-7" d="M6,10.76c2.87,1.76,5.57.37,7.39,0.12,3.73-1.74,7,1.65,11.59,2.84V13.61C20.44,12.45,17.13,9,13.41,10.79c-1.83.25-4.56,1.7-7.46-.15C3.75,9.8,1.46,7,0,8.53V9C1.45,7.17,3.79,9.94,6,10.76Z" transform="translate(0 -3.3)"/><path class="cls-7" d="M6.27,10.87c2.85,1.65,5.44.16,7.26,0,3.67-1.68,6.9,1.74,11.47,2.92V13.64C20.4,12.48,17.17,9,13.5,10.75c-1.82.21-4.44,1.73-7.31,0C3.92,9.94,1.49,7,0,8.74V9.21C1.47,7.14,4,10.08,6.27,10.87Z" transform="translate(0 -3.3)"/><path class="cls-7" d="M6.52,11c2.81,1.53,5.3,0,7.11-.19,3.62-1.62,6.76,1.81,11.37,3v-0.1c-4.65-1.18-7.79-4.64-11.43-3-1.81.18-4.33,1.74-7.15,0.14C4.07,10.07,1.5,7,0,9V9.46C1.49,7.12,4.13,10.22,6.52,11Z" transform="translate(0 -3.3)"/><path class="cls-7" d="M6.74,11.06c2.76,1.41,5.16-.17,7-0.31,3.58-1.58,6.65,1.86,11.3,3.07V13.72c-4.69-1.2-7.75-4.67-11.36-3-1.79.16-4.22,1.75-7,.27C4.22,10.2,1.51,7,0,9.26V9.75C1.5,7.13,4.27,10.35,6.74,11.06Z" transform="translate(0 -3.3)"/><path class="cls-7" d="M7,11.14c2.72,1.29,5-.31,6.81-0.43,3.54-1.53,6.53,1.92,11.22,3.15v-0.1c-4.68-1.19-7.55-4.64-11-3.22-1.84.07-4.13,1.84-6.9,0.54-2.52-.64-5.46-4-7-1.55V10C1.5,7.14,4.42,10.47,7,11.14Z" transform="translate(0 -3.3)"/><path class="cls-7" d="M25,13.85v0c-2.85-.93-4.76-2.53-6.74-3C20.21,11.52,22.23,13.22,25,13.85Z" transform="translate(0 -3.3)"/><path class="cls-7" d="M0,10.26l0-.08c1.44-2.41,3.17-.68,5,0.1C3.07,9.38,1.27,7.5,0,9.76v0.5Z" transform="translate(0 -3.3)"/><path class="cls-7" d="M18.26,10.79a6.39,6.39,0,0,0-4-.33c-1.92.32-4,1.55-6.81,0.76C12,12.34,14.89,9.46,18.26,10.79Z" transform="translate(0 -3.3)"/><path class="cls-7" d="M0.25,10.05c4.54-1.24,10.3,3.33,13.73,1s6.13,1.17,11,2.77v-0.1c-4.92-1.58-7.63-5.12-11.1-3.05-3.4,2.68-9.24-2-13.76-.94L0,10v0.52C0.08,10.37.16,10.2,0.25,10.05Z" transform="translate(0 -3.3)"/><path class="cls-7" d="M24.91,13.92c-2.72-.9-4.56-2.45-6.41-3.07C20.32,11.61,22.21,13.24,24.91,13.92Z" transform="translate(0 -3.3)"/><path class="cls-7" d="M18.5,10.85a6.33,6.33,0,0,0-3.74-.56c-1.95.15-4,1.63-6.87,1.05C12.33,12,15.11,9.27,18.5,10.85Z" transform="translate(0 -3.3)"/><path class="cls-7" d="M0,10.79A7.14,7.14,0,0,1,.46,10c1.86-1.94,4.18.65,6.36,1.1C4.45,10.54,2,7.56.34,9.66,0.23,9.83.11,10,0,10.25v0.54Z" transform="translate(0 -3.3)"/><path class="cls-7" d="M0.68,9.88C3,8.58,6.31,11.41,8.83,11.5,11.46,12.1,13.27,10,15,10.31c3.24-.79,5.88,2.78,10,3.75V14c-4.12-1-6.77-4.57-10-3.73-1.75-.34-3.57,1.84-6.22,1.21C6.21,11.3,2.84,8.36.57,9.59A5.87,5.87,0,0,0,0,10.5V11A6.22,6.22,0,0,1,.68,9.88Z" transform="translate(0 -3.3)"/><path class="cls-7" d="M0.91,9.84C3.27,8.93,6.52,11.46,9,11.49c2.55,0.48,4.3-1.55,6-1.25,3.22-.81,5.75,2.77,10,3.83V13.92c-4.55-1.24-6.83-4.37-9.69-3.78-1.88-.48-3.68,1.8-6.35,1.29-2.55,0-6-2.8-8.18-1.87A5.07,5.07,0,0,0,0,10.71v0.5A5.47,5.47,0,0,1,.91,9.84Z" transform="translate(0 -3.3)"/><path class="cls-7" d="M1.14,9.82c2.42-.58,5.6,1.7,8,1.68,2.49,0.37,4.19-1.56,5.9-1.28,3.19-.8,5.66,2.78,10,3.88V14c-4.33-1.09-6.8-4.71-10-3.86-1.71-.27-3.42,1.71-5.93,1.3C6.64,11.43,3.43,9,1,9.54a4.57,4.57,0,0,0-1,1.36v0.54A5.12,5.12,0,0,1,1.14,9.82Z" transform="translate(0 -3.3)"/><path class="cls-7" d="M15.68,10.1c3.09-.38,5.48,3.12,9.32,4.06V14c-3.93-1.06-6.26-4.11-9.14-4-1.42-.53-2.72.63-4.4,1.16A14.47,14.47,0,0,0,15.68,10.1Z" transform="translate(0 -3.3)"/><path class="cls-7" d="M11.47,11.17a19.61,19.61,0,0,1-3.53.07,5.69,5.69,0,0,0,1.75.16A4.71,4.71,0,0,0,11.47,11.17Z" transform="translate(0 -3.3)"/><path class="cls-7" d="M0,11.65A4.69,4.69,0,0,1,1.37,9.83a24,24,0,0,0,6.57,1.41c-2.2-.47-4.72-1.8-6.69-1.69A4.25,4.25,0,0,0,0,11.13v0.52Z" transform="translate(0 -3.3)"/><path class="cls-7" d="M1.61,9.86c2.67,0.1,6,1.93,8.48,1.57,2.55,0,4.17-2.15,6-1.37C18.86,10,21,13,25,14.12V14c-4-1.13-6.12-4.07-8.86-4-1.89-.8-3.51,1.43-6.09,1.4-2.46.35-5.88-1.56-8.57-1.77A3.9,3.9,0,0,0,0,11.31v0.5A4.24,4.24,0,0,1,1.61,9.86Z" transform="translate(0 -3.3)"/><path class="cls-7" d="M1.85,9.91c6.45,2.94,11.47.45,14.54,0.11,2.71,0.19,4.94,3.08,8.61,4.12V14c-3.65-1-5.87-3.91-8.58-4.1-3.09.33-8.17,3-14.69-.28A3.58,3.58,0,0,0,0,11.45V12A4,4,0,0,1,1.85,9.91Z" transform="translate(0 -3.3)"/><path class="cls-7" d="M25,13.83c-2.53-1.11-4.75-2.61-6.93-3.42,2.08,0.9,4.08,2.92,6.93,3.75V13.83Z" transform="translate(0 -3.3)"/><path class="cls-7" d="M11.29,11.14c1.8-.6,3.29-1.35,4.7-1.27A6.61,6.61,0,0,0,11.29,11.14Z" transform="translate(0 -3.3)"/><path class="cls-7" d="M2.68,10c3.83,1.74,6.69,2,8.62,1.16C9.1,12.26,5.75,10.79,2.68,10Z" transform="translate(0 -3.3)"/><path class="cls-7" d="M0,12.3a3.61,3.61,0,0,1,2.36-2.25,3.33,3.33,0,0,1,.54,0L2.24,9.81a3.29,3.29,0,0,0-2.24,2V12.3Z" transform="translate(0 -3.3)"/><path class="cls-7" d="M25,13.88c-2.59-1.12-4.88-2.83-7.17-3.66C20,11.06,22,13.23,25,14.16V13.88Z" transform="translate(0 -3.3)"/><path class="cls-7" d="M11.84,10.94c1.83-.7,3.35-1.4,4.8-1a5.17,5.17,0,0,1,1,.23A5.94,5.94,0,0,0,11.84,10.94Z" transform="translate(0 -3.3)"/><path class="cls-7" d="M2.89,10.1c4.19,2,7,1.81,8.94.84C9.66,12.21,6.23,11.12,2.89,10.1Z" transform="translate(0 -3.3)"/><path class="cls-7" d="M2.61,10.15c6.77,3.26,11-.64,14-0.32C19.4,10.16,21.44,13,25,14.17V14.11c-3.56-1-5.55-4.29-8.46-4.4-3-.35-6.59,3.8-14,0.2a3.24,3.24,0,0,0-2.49,2v0.52C0.76,11,1.62,10.26,2.61,10.15Z" transform="translate(0 -3.3)"/><path class="cls-7" d="M2.88,10.25c7.52,3.31,10.81-1.07,13.81-.51,2.9,0.21,4.81,3.46,8.32,4.47V14.1c-3.48-1-5.4-4.25-8.29-4.46-3-.61-6.33,4-14,0.38C1.7,10,.79,10.63,0,12.1v0.52C0.82,11,1.77,10.29,2.88,10.25Z" transform="translate(0 -3.3)"/><path class="cls-7" d="M3.14,10.36C10.7,13.59,13.78,9,16.76,9.66c2.93,0.25,4.77,3.53,8.24,4.53V14.08c-3.44-1-5.29-4.26-8.21-4.52-3-.75-6.1,4.09-13.77.57-1.17-.06-2.16.52-3,2.11v0.52C0.88,11,1.91,10.33,3.14,10.36Z" transform="translate(0 -3.3)"/><path class="cls-7" d="M3.41,10.47C11,13.6,13.89,8.75,16.87,9.59c3,0.31,4.71,3.61,8.13,4.6V14.06c-3.39-1-5.16-4.26-8.1-4.57-3-.89-5.9,4.18-13.61.77C2,10.13.92,10.68,0,12.4v0.53C0.95,11,2.06,10.38,3.41,10.47Z" transform="translate(0 -3.3)"/><path class="cls-7" d="M3.69,10.6C11.33,13.58,14,8.54,17,9.52c3,0.37,4.63,3.66,8,4.64h0V14c-3.32-1-5-4.24-8-4.62-3-1-5.72,4.23-13.47,1C2.14,10.19,1,10.71,0,12.56v0.52C1,11,2.21,10.44,3.69,10.6Z" transform="translate(0 -3.3)"/><path class="cls-7" d="M4,10.72c7.69,2.81,10.22-2.4,13.21-1.26,2.92,0.44,4.51,3.6,7.66,4.62L25,14.13V14h0c-3-1.14-4.94-4-7.77-4.62-3-1.17-6.29,4.27-13.38,1.13C2.29,10.25,1,10.72,0,12.69v0.52C1.07,11,2.36,10.49,4,10.72Z" transform="translate(0 -3.3)"/><path class="cls-7" d="M4.24,10.85c7.72,2.6,10.09-2.74,13.1-1.45C20.23,9.91,21.75,13,24.73,14L25,14.09V14l-0.1,0c-2.86-1.15-4.7-3.89-7.49-4.6-3-1.36-6.15,4.28-13.29,1.31-1.68-.32-3,0.08-4.12,2.17v0.53C1.13,11.06,2.51,10.56,4.24,10.85Z" transform="translate(0 -3.3)"/><path class="cls-7" d="M0,13.51C1.19,11.07,2.66,10.64,4.52,11c7.75,2.37,10-3.06,13-1.63a5.61,5.61,0,0,1,1.37.5,6.89,6.89,0,0,0-1.3-.55c-3.07-1.54-6,4.25-13.21,1.5-1.81-.38-3.24,0-4.4,2.18v0.53Z" transform="translate(0 -3.3)"/><path class="cls-7" d="M24.69,13.93L25,14.06V13.93l-0.14-.06C23,13.09,21.6,11.68,20,10.57,21.51,11.69,22.81,13.24,24.69,13.93Z" transform="translate(0 -3.3)"/><path class="cls-7" d="M4.8,11.09c7,2.31,10-3.39,13-1.75,2.67,0.85,4.38,3.33,6.89,4.53,0.1,0.05.21,0.08,0.31,0.13V13.87l-0.14-.05c-2.56-1.15-4.3-3.68-7-4.56-3.06-1.71-6,4.2-13.14,1.67C2.75,10.49,1.23,10.77,0,13.11v0.52C1.25,11.07,2.81,10.72,4.8,11.09Z" transform="translate(0 -3.3)"/><path class="cls-7" d="M5.09,11.22C12.13,13.27,15,7.5,18,9.31c2.65,0.93,4.31,3.31,6.68,4.5L25,13.93V13.8l-0.1,0c-2.43-1.13-4.12-3.56-6.83-4.53C15,7.34,12.11,13.33,5,11.05c-2.08-.46-3.68-0.28-5,2.19v0.51C1.31,11.07,3,10.8,5.09,11.22Z" transform="translate(0 -3.3)"/><path class="cls-7" d="M5.38,11.34c7,1.77,9.83-4,12.91-2,2.64,1,4.26,3.31,6.51,4.47L25,13.87V13.72h0c-2.44-.9-3.79-3.57-6.64-4.51-3.19-2-5.15,3.67-13.07,2-2.21-.49-3.91-0.4-5.26,2.18v0.51C1.37,11.06,3.12,10.9,5.38,11.34Z" transform="translate(0 -3.3)"/><path class="cls-7" d="M5.66,11.45c7.05,1.48,9.78-4.31,12.88-2.16,2.62,1.11,4.21,3.29,6.34,4.43L25,13.78V13.63c-2.29-.91-3.6-3.42-6.41-4.44-3.22-2.12-5.13,3.45-13,2.11-2.34-.5-4.14-0.53-5.55,2.17V14C1.43,11.06,3.27,11,5.66,11.45Z" transform="translate(0 -3.3)"/><path class="cls-7" d="M6,11.56C13,12.71,15.68,7,18.82,9.28c2.61,1.2,4.16,3.26,6.18,4.38V13.52c-2.1-.93-3.38-3.23-6.14-4.34-3.25-2.24-5.13,3.2-13,2.24C3.36,10.91,1.47,10.77,0,13.6v0.54C1.49,11.05,3.42,11.11,6,11.56Z" transform="translate(0 -3.3)"/><path class="cls-7" d="M6.24,11.66c7.19,0.73,9.9-5,13.13-2.24,2.38,1.29,3.85,3,5.63,4.11V13.36c-1.74-1.05-3.23-2.72-5.59-4-3.34-2.84-5.92,3-13.29,2.18C3.52,11,1.53,10.77,0,13.72v0.55C1.54,11,3.57,11.22,6.24,11.66Z" transform="translate(0 -3.3)"/><path class="cls-7" d="M6.53,11.75c7.18,0.34,9.91-5.18,13.17-2.28,2.28,1.31,3.7,2.85,5.3,3.9V13.2c-1.57-1-3-2.48-5.25-3.8-3.37-3-6,2.68-13.33,2.23C3.67,11.15,1.58,10.77,0,13.86v0.55C1.6,11,3.73,11.34,6.53,11.75Z" transform="translate(0 -3.3)"/><path class="cls-7" d="M6.81,11.83C14,11.76,16.74,6.5,20,9.53c2.17,1.31,3.52,2.66,5,3.66V13c-1.4-1-2.78-2.24-4.9-3.55C16.69,6.32,14,11.74,6.71,11.72,3.83,11.28,1.64,10.77,0,14v0.54C1.65,11,3.88,11.46,6.81,11.83Z" transform="translate(0 -3.3)"/><path class="cls-7" d="M7.1,11.91c7.13-.48,10-5.46,13.3-2.31,2,1.28,3.34,2.43,4.6,3.37V12.79c-1.24-.88-2.56-2-4.55-3.25C17,6.27,14.29,11.39,7,11.8c-3-.38-5.3-1-7,2.32v0.54C1.71,11,4,11.6,7.1,11.91Z" transform="translate(0 -3.3)"/><path class="cls-7" d="M7.39,12c7.09-.92,10-5.54,13.37-2.29,1.88,1.21,3.12,2.19,4.24,3V12.54c-1.1-.78-2.35-1.71-4.19-2.91C17.35,6.26,14.54,11,7.28,11.87,4.15,11.56,1.76,10.74,0,14.23v0.53C1.77,11,4.2,11.73,7.39,12Z" transform="translate(0 -3.3)"/><path class="cls-7" d="M7.67,12c7-1.35,10.06-5.57,13.46-2.25C22.84,10.9,24,11.72,25,12.46V12.28c-1-.67-2.15-1.46-3.81-2.55-3.5-3.44-6.42.9-13.62,2.2C4.31,11.71,1.81,10.71,0,14.34v0.53C1.82,10.95,4.36,11.88,7.67,12Z" transform="translate(0 -3.3)"/><path class="cls-7" d="M8,12.09c7-1.79,10.13-5.56,13.56-2.2,1.52,1,2.61,1.67,3.49,2.29V12c-0.88-.56-2-1.22-3.42-2.17C18,6.37,15,10.24,7.85,12c-3.38-.13-6-1.3-7.85,2.47V15C1.87,10.94,4.52,12,8,12.09Z" transform="translate(0 -3.3)"/><path class="cls-7" d="M8.23,12.13c6.94-2.22,10.2-5.5,13.68-2.12,1.31,0.83,2.3,1.4,3.09,1.9V11.76c-0.79-.45-1.77-1-3-1.8C18.4,6.47,15.23,9.83,8.13,12,4.64,12,1.92,10.68,0,14.59v0.56C1.93,10.92,4.68,12.18,8.23,12.13Z" transform="translate(0 -3.3)"/><path class="cls-7" d="M8.51,12.16c6.88-2.65,10.29-5.38,13.81-2,1.1,0.67,2,1.13,2.68,1.52V11.52c-0.7-.36-1.55-0.79-2.6-1.44-3.63-3.46-6.94-.67-14,2C4.8,12.18,2,10.66,0,14.71v0.53C2,10.87,4.85,12.34,8.51,12.16Z" transform="translate(0 -3.3)"/><path class="cls-7" d="M8.78,12.18c6.83-3.08,10.39-5.23,14-1.94,0.9,0.52,1.63.87,2.25,1.17V11.3c-0.61-.28-1.32-0.61-2.17-1.1C19.14,6.8,15.68,9,8.69,12.09,5,12.35,2,10.62,0,14.81v0.54C2,10.84,5,12.51,8.78,12.18Z" transform="translate(0 -3.3)"/><path class="cls-7" d="M9.05,12.19c6.78-3.49,10.5-5,14.14-1.83,0.69,0.36,1.29.63,1.81,0.84V11.11a17.69,17.69,0,0,1-1.72-.79C19.52,7,15.9,8.58,9,12.11c-3.82.42-6.87-1.52-9,2.81v0.54C2.09,10.8,5.19,12.68,9.05,12.19Z" transform="translate(0 -3.3)"/><path class="cls-7" d="M9.32,12.19c6.73-3.91,10.6-4.76,14.34-1.72,0.49,0.23.94,0.41,1.34,0.56V10.94c-0.38-.14-0.8-0.3-1.25-0.51-3.85-3.12-7.63-2.28-14.52,1.68C5.31,12.7,2.14,10.55,0,15v0.56C2.14,10.76,5.36,12.85,9.32,12.19Z" transform="translate(0 -3.3)"/><path class="cls-7" d="M9.58,12.18c6.69-4.3,10.73-4.44,14.56-1.62,0.31,0.13.58,0.22,0.86,0.31V10.79c-0.24-.08-0.49-0.15-0.75-0.26-4-2.9-7.9-2.8-14.75,1.57-4,.78-7.3-1.58-9.5,3v0.55C2.19,10.73,5.53,13,9.58,12.18Z" transform="translate(0 -3.3)"/><path class="cls-7" d="M9.85,12.16c6.65-4.69,10.85-4.07,14.81-1.52L25,10.74V10.67l-0.23-.06c-4.09-2.61-8.2-3.3-15,1.48-4.1,1-7.52-1.6-9.76,3.16v0.54C2.24,10.68,5.71,13.21,9.85,12.16Z" transform="translate(0 -3.3)"/><path class="cls-7" d="M10.11,12.13c6.51-5,10.83-3.69,14.89-1.54V10.49C20.85,8.35,16.63,7,10,12.06c-4.19,1.19-7.73-1.61-10,3.28V15.9C2.29,10.64,5.88,13.39,10.11,12.13Z" transform="translate(0 -3.3)"/><path class="cls-7" d="M10.36,12.1C16.56,7,20.92,8.69,25,10.38V10.29C20.84,8.6,16.57,6.87,10.28,12,6,13.44,2.35,10.41,0,15.45V16C2.34,10.59,6.06,13.58,10.36,12.1Z" transform="translate(0 -3.3)"/><path class="cls-7" d="M10.61,12.05C16.54,6.92,20.88,8.83,25,10.26V10.2C20.79,8.69,16.48,6.87,10.53,12,6.19,13.64,2.4,10.36,0,15.55v0.55C2.39,10.53,6.23,13.76,10.61,12.05Z" transform="translate(0 -3.3)"/><path class="cls-7" d="M10.86,12c5.7-5,9.93-3.2,14.14-1.8V10.14c-4.29-1.47-8.5-3.22-14.22,1.81C6.37,13.83,2.45,10.32,0,15.66v0.57C2.43,10.49,6.41,14,10.86,12Z" transform="translate(0 -3.3)"/><path class="cls-7" d="M11.11,11.94C16.57,7,20.7,8.77,25,10.15V10.08C20.63,8.63,16.51,7,11,11.89,6.55,14,2.49,10.27,0,15.79v0.59C2.48,10.44,6.58,14.14,11.11,11.94Z" transform="translate(0 -3.3)"/></g></g></g></g></svg>